<svg width="16" height="16" viewBox="0 0 16 16" fill="none" xmlns="http://www.w3.org/2000/svg">
<path d="M11.2759 0.130859H4.3787C2.03644 0.130859 0.130859 2.03653 0.130859 4.37879V11.276C0.130859 13.6184 2.03644 15.5239 4.3787 15.5239H11.2759C13.6184 15.5239 15.5239 13.6183 15.5239 11.276V4.37879C15.524 2.03653 13.6184 0.130859 11.2759 0.130859ZM14.1583 11.276C14.1583 12.8653 12.8653 14.1582 11.276 14.1582H4.3787C2.78952 14.1583 1.49661 12.8653 1.49661 11.276V4.37879C1.49661 2.78961 2.78952 1.49661 4.3787 1.49661H11.2759C12.8652 1.49661 14.1582 2.78961 14.1582 4.37879V11.276H14.1583Z" fill="black"/>
<path d="M7.82774 3.86084C5.64063 3.86084 3.86133 5.64014 3.86133 7.82725C3.86133 10.0143 5.64063 11.7935 7.82774 11.7935C10.0148 11.7935 11.7941 10.0143 11.7941 7.82725C11.7941 5.64014 10.0148 3.86084 7.82774 3.86084ZM7.82774 10.4276C6.39379 10.4276 5.22708 9.2611 5.22708 7.82716C5.22708 6.39312 6.3937 5.2265 7.82774 5.2265C9.26177 5.2265 10.4284 6.39312 10.4284 7.82716C10.4284 9.2611 9.26168 10.4276 7.82774 10.4276Z" fill="black"/>
<path d="M11.9605 2.70312C11.6974 2.70312 11.4389 2.80965 11.2531 2.99631C11.0663 3.18205 10.959 3.44063 10.959 3.70467C10.959 3.9679 11.0664 4.22639 11.2531 4.41304C11.4388 4.59878 11.6974 4.70622 11.9605 4.70622C12.2246 4.70622 12.4823 4.59878 12.6689 4.41304C12.8556 4.22639 12.9621 3.96781 12.9621 3.70467C12.9621 3.44063 12.8556 3.18205 12.6689 2.99631C12.4832 2.80965 12.2246 2.70312 11.9605 2.70312Z" fill="black"/>
</svg>
