<svg width="60" height="60" viewBox="0 0 60 60" fill="none" xmlns="http://www.w3.org/2000/svg">
<path d="M57.5619 2.43827V57.5619H2.43827V2.43827H57.5619ZM57.5619 0.90918H2.43827C1.59727 0.90918 0.90918 1.59727 0.90918 2.43827V57.5619C0.90918 58.4029 1.59727 59.091 2.43827 59.091H57.5619C58.4029 59.091 59.091 58.4029 59.091 57.5619V2.43827C59.091 1.59727 58.4029 0.90918 57.5619 0.90918Z" fill="#F4976E"/>
<path d="M30.8028 17.8056C30.8028 17.1939 30.5735 16.6587 30.1912 16.2765C30.5735 15.8942 30.8028 15.359 30.8028 14.7474C30.8028 13.677 30.1147 12.836 29.1973 12.5302C28.4327 8.93685 25.2981 6.3374 21.5518 6.3374H15.5119C11.7657 6.3374 8.63104 9.01331 7.94295 12.5302C7.02549 12.836 6.3374 13.677 6.3374 14.7474C6.3374 15.359 6.56677 15.8942 6.94904 16.2765C6.56677 16.6587 6.3374 17.1939 6.3374 17.8056C6.3374 18.8759 7.02549 19.7169 7.94295 20.0227C8.63104 23.6161 11.8421 26.2156 15.5119 26.2156H21.5518C25.2216 26.2156 28.4327 23.5396 29.1208 20.0227C30.1147 19.7169 30.8028 18.7995 30.8028 17.8056ZM15.5119 7.86649H21.5518C24.3806 7.86649 26.8272 9.77785 27.5153 12.4538H27.2095L27.0566 12.3008C26.6743 11.9186 26.1391 11.6892 25.6039 11.6892H25.1452C24.61 11.6892 24.0748 11.9186 23.6926 12.3008C23.6161 12.3773 23.4632 12.4538 23.3103 12.4538H22.8516C22.6987 12.4538 22.5457 12.3773 22.4693 12.3008C22.087 11.9186 21.5518 11.6892 21.0167 11.6892H20.5579C20.0227 11.6892 19.4876 11.9186 19.1053 12.3008C19.0288 12.3773 18.8759 12.4538 18.723 12.4538H18.2643C18.1114 12.4538 17.9585 12.3773 17.882 12.3008C17.4997 11.9186 16.9646 11.6892 16.4294 11.6892H15.9707C15.4355 11.6892 14.9003 11.9186 14.518 12.3008C14.4416 12.3773 14.2887 12.4538 14.1358 12.4538H13.677C13.5241 12.4538 13.3712 12.3773 13.2948 12.3008C12.9125 11.9186 12.3773 11.6892 11.8421 11.6892H11.3834C10.8482 11.6892 10.313 11.9186 9.93076 12.3008L9.77785 12.4538H9.47203C10.2366 9.77785 12.6831 7.86649 15.5119 7.86649ZM8.63104 13.9828H10.4659L11.0776 13.3712C11.154 13.2948 11.3069 13.2183 11.4598 13.2183H11.9186C12.0715 13.2183 12.2244 13.2948 12.3008 13.3712C12.6831 13.7535 13.2183 13.9828 13.7535 13.9828H14.2122C14.7474 13.9828 15.2826 13.7535 15.6648 13.3712C15.7413 13.2948 15.8942 13.2183 16.0471 13.2183H16.5058C16.6587 13.2183 16.8117 13.2948 16.8881 13.3712C17.2704 13.7535 17.8056 13.9828 18.3407 13.9828H18.7995C19.3347 13.9828 19.8698 13.7535 20.2521 13.3712C20.3286 13.2948 20.4815 13.2183 20.6344 13.2183H21.0931C21.246 13.2183 21.3989 13.2948 21.4754 13.3712C21.8577 13.7535 22.3928 13.9828 22.928 13.9828H23.3867C23.9219 13.9828 24.4571 13.7535 24.8394 13.3712C24.9158 13.2948 25.0687 13.2183 25.2216 13.2183H25.6804C25.8333 13.2183 25.9862 13.2948 26.0626 13.3712L26.6743 13.9828H28.5092C28.9679 13.9828 29.2737 14.2887 29.2737 14.7474C29.2737 15.2061 28.9679 15.5119 28.5092 15.5119H8.63104C8.17231 15.5119 7.86649 15.2061 7.86649 14.7474C7.86649 14.2887 8.17231 13.9828 8.63104 13.9828ZM8.63104 17.041H28.5092C28.9679 17.041 29.2737 17.3468 29.2737 17.8056C29.2737 18.2643 28.9679 18.5701 28.5092 18.5701H8.63104C8.17231 18.5701 7.86649 18.2643 7.86649 17.8056C7.86649 17.3468 8.17231 17.041 8.63104 17.041ZM21.5518 24.6865H15.5119C12.6831 24.6865 10.2366 22.7751 9.54849 20.0992H27.5917C26.8272 22.7751 24.3806 24.6865 21.5518 24.6865Z" fill="#F4976E"/>
<path d="M52.0573 40.0536C51.3693 36.4603 48.1582 33.8608 44.4884 33.8608H38.4485C34.7786 33.8608 31.5676 36.5367 30.8795 40.0536C29.962 40.3595 29.2739 41.2005 29.2739 42.2708C29.2739 42.8825 29.5033 43.4176 29.8856 43.7999C29.5033 44.1822 29.2739 44.7174 29.2739 45.329C29.2739 46.3994 29.962 47.2404 30.8795 47.5462C31.5676 51.1395 34.7786 53.739 38.4485 53.739H44.4884C48.1582 53.739 51.3693 51.0631 52.0573 47.5462C52.9748 47.2404 53.6629 46.3994 53.6629 45.329C53.6629 44.7174 53.4335 44.1822 53.0513 43.7999C53.4335 43.4176 53.6629 42.8825 53.6629 42.2708C53.7393 41.2005 53.0513 40.3595 52.0573 40.0536ZM38.4485 35.3899H44.4884C47.3172 35.3899 49.7637 37.3013 50.4518 39.9772H50.146L49.9931 39.8243C49.6108 39.442 49.0756 39.2126 48.5404 39.2126H48.0817C47.5465 39.2126 47.0114 39.442 46.6291 39.8243C46.5526 39.9007 46.3997 39.9772 46.2468 39.9772H45.7881C45.6352 39.9772 45.4823 39.9007 45.4058 39.8243C45.0235 39.442 44.4884 39.2126 43.9532 39.2126H43.4945C42.9593 39.2126 42.4241 39.442 42.0418 39.8243C41.9654 39.9007 41.8125 39.9772 41.6595 39.9772H41.2008C41.0479 39.9772 40.895 39.9007 40.8185 39.8243C40.4363 39.442 39.9011 39.2126 39.3659 39.2126H38.9072C38.372 39.2126 37.8368 39.442 37.4545 39.8243C37.3781 39.9007 37.2252 39.9772 37.0723 39.9772H36.6136C36.4606 39.9772 36.3077 39.9007 36.2313 39.8243C35.849 39.442 35.3138 39.2126 34.7786 39.2126H34.3199C33.7847 39.2126 33.2496 39.442 32.8673 39.8243L32.7144 39.9772H32.4086C33.1731 37.3013 35.6196 35.3899 38.4485 35.3899ZM31.5676 41.5063H33.4025L34.0141 40.8946C34.0906 40.8182 34.2435 40.7417 34.3964 40.7417H34.8551C35.008 40.7417 35.1609 40.8182 35.2374 40.8946C35.6196 41.2769 36.1548 41.5063 36.69 41.5063H37.1487C37.6839 41.5063 38.2191 41.2769 38.6014 40.8946C38.6778 40.8182 38.8307 40.7417 38.9836 40.7417H39.4424C39.5953 40.7417 39.7482 40.8182 39.8246 40.8946C40.2069 41.2769 40.7421 41.5063 41.2773 41.5063H41.736C42.2712 41.5063 42.8064 41.2769 43.1886 40.8946C43.2651 40.8182 43.418 40.7417 43.5709 40.7417H44.0296C44.1825 40.7417 44.3355 40.8182 44.4119 40.8946C44.7942 41.2769 45.3294 41.5063 45.8645 41.5063H46.3233C46.8584 41.5063 47.3936 41.2769 47.7759 40.8946C47.8524 40.8182 48.0053 40.7417 48.1582 40.7417H48.6169C48.7698 40.7417 48.9227 40.8182 48.9992 40.8946L49.6108 41.5063H51.4457C51.9044 41.5063 52.2103 41.8121 52.2103 42.2708C52.2103 42.7296 51.9044 43.0354 51.4457 43.0354H31.5676C31.1088 43.0354 30.803 42.7296 30.803 42.2708C30.803 41.8121 31.1088 41.5063 31.5676 41.5063ZM44.4884 52.2099H38.4485C35.6196 52.2099 33.1731 50.2985 32.485 47.6226H50.5283C49.7637 50.2985 47.3172 52.2099 44.4884 52.2099ZM51.4457 46.0935H31.5676C31.1088 46.0935 30.803 45.7877 30.803 45.329C30.803 44.8703 31.1088 44.5645 31.5676 44.5645H51.4457C51.9044 44.5645 52.2103 44.8703 52.2103 45.329C52.2103 45.7877 51.828 46.0935 51.4457 46.0935Z" fill="#F4976E"/>
<path d="M19.9461 30.8795C19.6403 29.962 18.7993 29.2739 17.7289 29.2739C17.1173 29.2739 16.5821 29.5033 16.1998 29.8856C15.8175 29.5033 15.2824 29.2739 14.6707 29.2739C13.6004 29.2739 12.7594 29.962 12.4536 30.8795C8.86019 31.5676 6.26074 34.7786 6.26074 38.4485V44.4884C6.26074 48.1582 8.93665 51.3693 12.4536 52.0573C12.7594 52.9748 13.6004 53.6629 14.6707 53.6629C15.2824 53.6629 15.8175 53.4335 16.1998 53.0513C16.5821 53.4335 17.1173 53.6629 17.7289 53.6629C18.7993 53.6629 19.6403 52.9748 19.9461 52.0573C23.5394 51.3693 26.1389 48.1582 26.1389 44.4884V38.4485C26.2154 34.7786 23.5394 31.5676 19.9461 30.8795ZM7.86629 44.4884V38.4485C7.86629 35.6196 9.77765 33.1731 12.4536 32.485V32.7908L12.3006 32.9437C11.9184 33.326 11.689 33.8612 11.689 34.3964V34.8551C11.689 35.3903 11.9184 35.9255 12.3006 36.3077C12.3771 36.3842 12.4536 36.5371 12.4536 36.69V37.1487C12.4536 37.3016 12.3771 37.4546 12.3006 37.531C11.9184 37.9133 11.689 38.4485 11.689 38.9836V39.4424C11.689 39.9775 11.9184 40.5127 12.3006 40.895C12.3771 40.9715 12.4536 41.1244 12.4536 41.2773V41.736C12.4536 41.8889 12.3771 42.0418 12.3006 42.1183C11.9184 42.5005 11.689 43.0357 11.689 43.5709V44.0296C11.689 44.5648 11.9184 45.1 12.3006 45.4823C12.3771 45.5587 12.4536 45.7116 12.4536 45.8645V46.3233C12.4536 46.4762 12.3771 46.6291 12.3006 46.7055C11.9184 47.0878 11.689 47.623 11.689 48.1582V48.6169C11.689 49.1521 11.9184 49.6873 12.3006 50.0695L12.4536 50.2224V50.5283C9.77765 49.7637 7.86629 47.3172 7.86629 44.4884ZM14.7472 52.2103C14.2885 52.2103 13.9826 51.9044 13.9826 51.4457V49.6108L13.371 48.9992C13.2945 48.9227 13.2181 48.7698 13.2181 48.6169V48.1582C13.2181 48.0053 13.2945 47.8524 13.371 47.7759C13.7533 47.3936 13.9826 46.8584 13.9826 46.3233V45.8645C13.9826 45.3294 13.7533 44.7942 13.371 44.4119C13.2945 44.3355 13.2181 44.1825 13.2181 44.0296V43.5709C13.2181 43.418 13.2945 43.2651 13.371 43.1886C13.7533 42.8064 13.9826 42.2712 13.9826 41.736V41.2773C13.9826 40.7421 13.7533 40.2069 13.371 39.8246C13.2945 39.7482 13.2181 39.5953 13.2181 39.4424V38.9836C13.2181 38.8307 13.2945 38.6778 13.371 38.6014C13.7533 38.2191 13.9826 37.6839 13.9826 37.1487V36.69C13.9826 36.1548 13.7533 35.6196 13.371 35.2374C13.2945 35.1609 13.2181 35.008 13.2181 34.8551V34.3964C13.2181 34.2435 13.2945 34.0906 13.371 34.0141L13.9826 33.4025V31.5676C13.9826 31.1088 14.2885 30.803 14.7472 30.803C15.2059 30.803 15.5117 31.1088 15.5117 31.5676V51.4457C15.5117 51.828 15.1295 52.2103 14.7472 52.2103ZM18.5699 51.4457C18.5699 51.9044 18.2641 52.2103 17.8054 52.2103C17.3466 52.2103 17.0408 51.9044 17.0408 51.4457V31.5676C17.0408 31.1088 17.3466 30.803 17.8054 30.803C18.2641 30.803 18.5699 31.1088 18.5699 31.5676V51.4457ZM24.6863 44.4884C24.6863 47.3172 22.7749 49.7637 20.099 50.4518V32.485C22.7749 33.1731 24.6863 35.6196 24.6863 38.4485V44.4884Z" fill="#F4976E"/>
<path d="M47.4695 7.94295C47.1637 7.02549 46.3227 6.3374 45.2523 6.3374C44.6407 6.3374 44.1055 6.56677 43.7233 6.94904C43.341 6.56677 42.8058 6.3374 42.1942 6.3374C41.1238 6.3374 40.2828 7.02549 39.977 7.94295C36.3836 8.63104 33.7842 11.8421 33.7842 15.5119V21.5518C33.7842 25.2216 36.4601 28.4327 39.977 29.1208C40.2828 30.0383 41.1238 30.7264 42.1942 30.7264C42.8058 30.7264 43.341 30.497 43.7233 30.1147C44.1055 30.497 44.6407 30.7264 45.2523 30.7264C46.3227 30.7264 47.1637 30.0383 47.4695 29.1208C51.0629 28.4327 53.6623 25.2216 53.6623 21.5518V15.5119C53.7388 11.8421 51.0629 8.63104 47.4695 7.94295ZM35.3897 21.5518V15.5119C35.3897 12.6831 37.3011 10.2366 39.977 9.54849V27.5917C37.3011 26.8272 35.3897 24.3806 35.3897 21.5518ZM42.2706 29.2737C41.8119 29.2737 41.5061 28.9679 41.5061 28.5092V8.63104C41.5061 8.17231 41.8119 7.86649 42.2706 7.86649C42.7293 7.86649 43.0352 8.17231 43.0352 8.63104V28.5092C43.0352 28.8915 42.6529 29.2737 42.2706 29.2737ZM46.0933 26.6743V28.5092C46.0933 28.9679 45.7875 29.2737 45.3288 29.2737C44.8701 29.2737 44.5643 28.9679 44.5643 28.5092V8.63104C44.5643 8.17231 44.8701 7.86649 45.3288 7.86649C45.7875 7.86649 46.0933 8.17231 46.0933 8.63104V10.4659L46.705 11.0776C46.7814 11.154 46.8579 11.3069 46.8579 11.4598V11.9186C46.8579 12.0715 46.7814 12.2244 46.705 12.3008C46.3227 12.6831 46.0933 13.2183 46.0933 13.7535V14.2122C46.0933 14.7474 46.3227 15.2826 46.705 15.6648C46.7814 15.7413 46.8579 15.8942 46.8579 16.0471V16.5058C46.8579 16.6587 46.7814 16.8117 46.705 16.8881C46.3227 17.2704 46.0933 17.8056 46.0933 18.3407V18.7995C46.0933 19.3347 46.3227 19.8698 46.705 20.2521C46.7814 20.3286 46.8579 20.4815 46.8579 20.6344V21.0931C46.8579 21.246 46.7814 21.3989 46.705 21.4754C46.3227 21.8576 46.0933 22.3928 46.0933 22.928V23.3867C46.0933 23.9219 46.3227 24.4571 46.705 24.8394C46.7814 24.9158 46.8579 25.0687 46.8579 25.2216V25.6804C46.8579 25.8333 46.7814 25.9862 46.705 26.0626L46.0933 26.6743ZM52.2097 21.5518C52.2097 24.3806 50.2983 26.8272 47.6224 27.5153V27.2095L47.7753 27.0566C48.1576 26.6743 48.387 26.1391 48.387 25.6039V25.1452C48.387 24.61 48.1576 24.0748 47.7753 23.6926C47.6989 23.6161 47.6224 23.4632 47.6224 23.3103V22.8516C47.6224 22.6987 47.6989 22.5457 47.7753 22.4693C48.1576 22.087 48.387 21.5518 48.387 21.0167V20.5579C48.387 20.0227 48.1576 19.4876 47.7753 19.1053C47.6989 19.0288 47.6224 18.8759 47.6224 18.723V18.2643C47.6224 18.1114 47.6989 17.9585 47.7753 17.882C48.1576 17.4997 48.387 16.9646 48.387 16.4294V15.9707C48.387 15.4355 48.1576 14.9003 47.7753 14.518C47.6989 14.4416 47.6224 14.2887 47.6224 14.1358V13.677C47.6224 13.5241 47.6989 13.3712 47.7753 13.2948C48.1576 12.9125 48.387 12.3773 48.387 11.8421V11.3834C48.387 10.8482 48.1576 10.313 47.7753 9.93076L47.6224 9.77785V9.47203C50.2983 10.1601 52.2097 12.6067 52.2097 15.4355V21.5518Z" fill="#F4976E"/>
</svg>
