<svg width="74" height="75" viewBox="0 0 74 75" fill="none" xmlns="http://www.w3.org/2000/svg">
<path d="M58.4903 27.2793C59.1538 22.1774 56.9275 17.5239 52.542 14.8361C52.1395 14.5855 51.7203 14.3464 51.2959 14.1147C44.5499 10.4329 36.4965 9.70684 29.2008 12.1219C21.8061 14.5694 15.9294 19.8335 12.6525 26.9438C6.83395 39.581 11.3362 54.6928 23.1249 62.0945C23.6224 62.4074 24.1267 62.7033 24.6327 62.9794C24.9975 63.1785 25.3633 63.3665 25.7269 63.5443C30.3496 65.8093 35.6584 65.1742 39.5803 61.8867C43.7023 58.431 45.3272 53.0306 43.8204 47.7918C43.8204 47.7918 43.8204 47.7918 43.8199 47.7903C43.1633 45.5159 43.2784 43.5415 44.1617 41.9231C45.0423 40.3097 46.639 39.1477 48.9086 38.4691C54.1236 36.9067 57.795 32.6194 58.4903 27.2793ZM42.1258 40.8119C40.9555 42.9562 40.771 45.592 41.5921 48.4349C42.8408 52.778 41.4985 57.2515 38.0904 60.1084C34.8322 62.8395 30.5923 63.3458 26.7455 61.4605C25.9476 61.0714 25.1422 60.6228 24.3591 60.1309C13.5538 53.3459 9.4273 39.4959 14.7599 27.9146C17.7642 21.3936 23.1518 16.5669 29.9295 14.3233C36.6174 12.1094 44.0004 12.7753 50.1847 16.1506C50.5694 16.3606 50.9499 16.576 51.3231 16.8094C54.9133 19.0088 56.7328 22.812 56.1896 26.9797C55.6155 31.4002 52.5701 34.9518 48.244 36.2472C45.4088 37.0945 43.2934 38.6726 42.1258 40.8119Z" fill="#9FCE9E"/>
<path d="M49.3901 17.6087C47.1633 16.3934 44.362 17.2165 43.1466 19.4433C41.9313 21.6701 42.755 24.4705 44.9818 25.6858C47.2085 26.9011 50.0084 26.0784 51.2237 23.8517C52.439 21.6249 51.6169 18.8241 49.3901 17.6087ZM46.0929 23.6499C44.9885 23.0471 44.5798 21.6589 45.1826 20.5545C45.7853 19.4501 47.1745 19.0419 48.2789 19.6447C49.3834 20.2474 49.7906 21.636 49.1878 22.7405C48.585 23.8449 47.1974 24.2527 46.0929 23.6499Z" fill="#9FCE9E"/>
<path d="M30.9458 51.4032C28.719 50.1878 25.9182 51.01 24.7028 53.2368C23.4875 55.4635 24.3106 58.2649 26.5374 59.4802C28.7642 60.6956 31.5646 59.8719 32.7799 57.6451C33.9952 55.4183 33.1725 52.6185 30.9458 51.4032ZM27.6486 57.4443C26.5442 56.8415 26.136 55.4524 26.7388 54.3479C27.3415 53.2435 28.7301 52.8363 29.8346 53.4391C30.939 54.0419 31.3468 55.4295 30.744 56.5339C30.1412 57.6384 28.753 58.0471 27.6486 57.4443Z" fill="#9FCE9E"/>
<path d="M25.105 31.526C26.3204 29.2992 25.4982 26.4984 23.2714 25.2831C21.0447 24.0677 18.2433 24.8909 17.028 27.1176C15.8126 29.3444 16.6363 32.1448 18.8631 33.3601C21.0899 34.5755 23.8897 33.7528 25.105 31.526ZM19.9743 31.3242C18.8698 30.7214 18.4611 29.3333 19.0639 28.2288C19.6667 27.1244 21.0558 26.7162 22.1603 27.319C23.2647 27.9218 23.6719 29.3104 23.0691 30.4148C22.4663 31.5192 21.0787 31.927 19.9743 31.3242Z" fill="#9FCE9E"/>
<path d="M18.1973 39.5566C15.7637 40.2734 14.3655 42.8352 15.0803 45.2677C15.4261 46.4473 16.2121 47.4208 17.2907 48.0095C18.3693 48.5981 19.6127 48.7311 20.7914 48.3847C21.97 48.0384 22.9439 47.2539 23.5326 46.1753C24.1213 45.0967 24.2557 43.8528 23.9084 42.6736C23.1932 40.2396 20.6314 38.8414 18.1973 39.5566ZM20.1375 46.1596C18.9666 46.5037 17.6494 45.7848 17.3054 44.6139C16.9509 43.4076 17.6443 42.1371 18.8511 41.7817C20.0579 41.4288 21.3273 42.1216 21.6833 43.3275C21.8553 43.9129 21.7886 44.5293 21.4967 45.0642C21.2048 45.599 20.723 45.9876 20.1375 46.1596Z" fill="#9FCE9E"/>
<path d="M31.2388 15.6614C28.8063 16.3762 27.4081 18.938 28.1218 21.3725C28.4794 22.5896 29.2994 23.548 30.3333 24.1123C31.3671 24.6766 32.6158 24.8472 33.8329 24.4896C35.0125 24.1438 35.986 23.3578 36.5746 22.2792C37.1633 21.2006 37.2972 19.9576 36.9499 18.7785C36.2583 16.4192 33.5971 14.9668 31.2388 15.6614ZM33.1791 22.2645C31.9712 22.6194 30.7018 21.9265 30.3469 20.7187C29.9929 19.5114 30.6863 18.241 31.8926 17.8865C32.4781 17.7145 33.0945 17.7813 33.6293 18.0732C34.1642 18.3651 34.5528 18.8468 34.7248 19.4323C34.8969 20.0178 34.8306 20.6332 34.5387 21.168C34.2468 21.7028 33.7645 22.0924 33.1791 22.2645Z" fill="#9FCE9E"/>
<path d="M63.5928 43.2464L65.2288 37.5875C66.3049 37.189 67.2547 36.4354 67.8461 35.3518C68.9486 33.3318 68.5738 27.1535 68.4873 25.9361C68.4326 25.1475 67.4652 24.6221 66.7735 25.0007C65.7023 25.5876 60.3049 28.6142 59.2024 30.6342C58.6109 31.718 58.4907 32.9246 58.7377 34.0453L54.8636 38.4821C54.8312 38.5194 54.8223 38.5689 54.7952 38.6093C54.7605 38.6604 54.7119 38.6998 54.6855 38.7565L43.3584 63.1011C42.6502 64.6589 43.2729 66.5225 44.776 67.3428C46.28 68.1637 48.1843 67.6793 49.1172 66.2325L63.4584 43.5446C63.4918 43.4917 63.4987 43.4295 63.5229 43.3727C63.5422 43.3281 63.579 43.2939 63.5928 43.2464ZM47.1627 64.9839C46.8896 65.4063 46.3295 65.5484 45.8871 65.3069C45.4448 65.0655 45.2622 64.5182 45.4659 64.0694L56.2672 40.8558L60.8371 43.35L47.1627 64.9839ZM57.5613 38.9198L59.8754 36.2698C60.2389 36.6756 60.6599 37.0396 61.1647 37.3151C61.6697 37.5907 62.2041 37.748 62.7423 37.8342L61.7654 41.2143L57.5613 38.9198ZM62.2758 35.2791C61.0153 34.5912 60.5503 33.0059 61.2383 31.7454C61.6935 30.9113 64.0905 29.2688 66.2675 27.9656C66.3501 30.5021 66.2659 33.4056 65.8102 34.2406C65.1222 35.5011 63.5364 35.9671 62.2758 35.2791Z" fill="#9FCE9E"/>
</svg>
