<svg aria-hidden="true" style="position: absolute; width: 0; height: 0; overflow: hidden;" version="1.1" xmlns="http://www.w3.org/2000/svg" xmlns:xlink="http://www.w3.org/1999/xlink">
<defs>
<symbol id="icon-percent" viewBox="0 0 32 32">
<path d="M13.651 13.573c-1.2 1.227-2.747 1.84-4.64 1.84s-3.44-0.613-4.64-1.84c-1.173-1.253-1.76-2.813-1.76-4.68 0-1.893 0.6-3.467 1.8-4.72 1.2-1.28 2.733-1.92 4.6-1.92 1.893 0 3.44 0.64 4.64 1.92 1.227 1.253 1.84 2.827 1.84 4.72 0 1.867-0.613 3.427-1.84 4.68zM8.651 29.333h-2.16l17.040-26.68h2.2l-17.080 26.68zM27.571 27.973c-1.2 1.227-2.747 1.84-4.64 1.84s-3.44-0.613-4.64-1.84c-1.173-1.253-1.76-2.813-1.76-4.68 0-1.893 0.6-3.467 1.8-4.72 1.2-1.28 2.733-1.92 4.6-1.92 1.893 0 3.44 0.64 4.64 1.92 1.2 1.253 1.8 2.827 1.8 4.72 0 1.867-0.6 3.427-1.8 4.68zM6.131 12.133c0.747 0.853 1.707 1.28 2.88 1.28s2.147-0.427 2.92-1.28c0.773-0.88 1.16-1.96 1.16-3.24 0-1.333-0.387-2.427-1.16-3.28-0.747-0.88-1.72-1.32-2.92-1.32-1.173 0-2.133 0.44-2.88 1.32-0.747 0.853-1.12 1.947-1.12 3.28 0 1.28 0.373 2.36 1.12 3.24zM20.011 26.533c0.773 0.853 1.747 1.28 2.92 1.28s2.147-0.427 2.92-1.28c0.773-0.88 1.16-1.96 1.16-3.24 0-1.333-0.387-2.427-1.16-3.28-0.747-0.88-1.72-1.32-2.92-1.32s-2.173 0.44-2.92 1.32c-0.747 0.853-1.12 1.947-1.12 3.28 0 1.28 0.373 2.36 1.12 3.24z"></path>
</symbol>
<symbol id="icon-basket" viewBox="0 0 23 32">
<path stroke-linejoin="round" stroke-linecap="round" stroke-miterlimit="10" stroke-width="2.1333" d="M21.777 8.184h-20.253v22.292h20.253v-22.292z"></path>
<path stroke-linejoin="round" stroke-linecap="round" stroke-miterlimit="10" stroke-width="2.1333" d="M6.281 10.903v-5.709c0-2.039 1.495-3.67 3.262-3.67h4.214c1.767 0 3.262 1.631 3.262 3.67v5.709"></path>
</symbol>
<symbol id="icon-case" viewBox="0 0 27 32">
<path fill="none" stroke="#000" style="stroke: var(--color2, #000)" stroke-linejoin="round" stroke-linecap="round" stroke-miterlimit="10" stroke-width="1.2308" d="M18.462 6.897h-17.231v18.965h17.231v-18.965z"></path>
<path fill="none" stroke="#000" style="stroke: var(--color2, #000)" stroke-linejoin="round" stroke-linecap="round" stroke-miterlimit="10" stroke-width="1.2308" d="M5.278 9.21v-4.857c0-1.735 1.272-3.122 2.775-3.122h3.585c1.503 0 2.775 1.388 2.775 3.122v4.857"></path>
<path fill="#000" style="fill: var(--color2, #000)" d="M27.077 24c0 4.418-3.582 8-8 8s-8-3.582-8-8c0-4.418 3.582-8 8-8s8 3.582 8 8z"></path>
<path fill="#fff" style="fill: var(--color1, #fff)" d="M20.347 28.308h-1.022v-2.080h-3.902v-0.849l3.52-5.28h1.403v5.231h1.157v0.898h-1.157v2.080zM19.325 25.329v-4.283l-2.88 4.283h2.88z"></path>
</symbol>
<symbol id="icon-facebook" viewBox="0 0 32 32">
<path d="M19.757 16.406h-2.817v10.321h-4.268v-10.321h-2.030v-3.627h2.030v-2.347c0-1.678 0.797-4.307 4.306-4.307l3.162 0.013v3.521h-2.294c-0.376 0-0.905 0.188-0.905 0.989v2.135h3.19l-0.373 3.624z"></path>
</symbol>
<symbol id="icon-footer_cook" viewBox="0 0 46 32">
<path fill="#4e9dd3" style="fill: var(--color3, #4e9dd3)" d="M45.254 16.195l-6.054-7.189c-0.151-0.151-0.378-0.303-0.605-0.303h-8.324v12.108h-30.27v5.297c0 0.454 0.303 0.757 0.757 0.757h4.389c-0.076 0.227-0.076 0.53-0.076 0.757 0 2.119 1.665 3.784 3.784 3.784s3.784-1.665 3.784-3.784c0-0.227 0-0.53-0.076-0.757h20.811c-0.076 0.227-0.076 0.53-0.076 0.757 0 2.119 1.665 3.784 3.784 3.784s3.784-1.665 3.784-3.784c0-0.227 0-0.53-0.076-0.757h3.859c0.454 0 0.757-0.303 0.757-0.757v-9.459c0-0.151-0.076-0.303-0.151-0.454zM43.060 15.892h-5.222v-2.649h2.951l2.27 2.649zM8.854 29.892c-1.287 0-2.27-0.984-2.27-2.27 0-0.378 0.076-0.757 0.303-1.135 0.378-0.681 1.135-1.135 1.968-1.135 0.227 0 0.378 0 0.605 0.076 0.378 0.076 0.757 0.303 0.984 0.605 0.151 0.151 0.227 0.303 0.378 0.454 0.227 0.378 0.303 0.757 0.303 1.135 0 1.287-1.059 2.27-2.27 2.27zM37.081 29.892c-1.286 0-2.27-0.984-2.27-2.27 0-0.378 0.076-0.757 0.303-1.135 0.378-0.681 1.135-1.135 1.968-1.135 0.227 0 0.378 0 0.605 0.076 0.378 0.076 0.757 0.303 0.984 0.605 0.151 0.151 0.227 0.303 0.378 0.454 0.227 0.378 0.303 0.757 0.303 1.135 0 1.287-0.984 2.27-2.27 2.27zM43.892 25.351h-3.784c0-0.076-0.076-0.076-0.076-0.151-0.076-0.076-0.151-0.151-0.227-0.227s-0.076-0.076-0.151-0.151-0.151-0.151-0.227-0.151c-0.076-0.076-0.076-0.076-0.151-0.076-0.076-0.076-0.151-0.076-0.227-0.151-0.076 0-0.076-0.076-0.151-0.076-0.076-0.076-0.151-0.076-0.227-0.151-0.076 0-0.151-0.076-0.151-0.076-0.076 0-0.151-0.076-0.303-0.076-0.076 0-0.151 0-0.151-0.076-0.076 0-0.227-0.076-0.303-0.076s-0.076 0-0.151 0c-0.151 0-0.303 0-0.454 0s-0.303 0-0.454 0c-0.076 0-0.076 0-0.151 0s-0.227 0-0.303 0.076c-0.076 0-0.151 0-0.151 0.076-0.076 0-0.151 0.076-0.303 0.076-0.076 0-0.151 0.076-0.151 0.076-0.076 0.076-0.151 0.076-0.227 0.151-0.076 0-0.076 0.076-0.151 0.076-0.076 0.076-0.151 0.076-0.227 0.151-0.076 0-0.076 0.076-0.151 0.076-0.076 0.076-0.151 0.151-0.227 0.151-0.076 0.076-0.076 0.076-0.151 0.151s-0.151 0.151-0.227 0.227c0 0.076-0.076 0.076-0.076 0.151h-22.324c0-0.076-0.076-0.076-0.076-0.151-0.076-0.076-0.151-0.151-0.227-0.227s-0.076-0.076-0.151-0.151-0.151-0.151-0.227-0.151c-0.076-0.076-0.076-0.076-0.151-0.076-0.076-0.076-0.151-0.076-0.227-0.151-0.076 0-0.076-0.076-0.151-0.076-0.076-0.076-0.151-0.076-0.227-0.151-0.076 0-0.151-0.076-0.151-0.076-0.076 0-0.151-0.076-0.303-0.076-0.076 0-0.151 0-0.151-0.076-0.076 0-0.227-0.076-0.303-0.076s-0.076 0-0.151 0c-0.151 0-0.303 0-0.454 0s-0.303 0-0.454 0c-0.076 0-0.076 0-0.151 0s-0.227 0-0.303 0.076c-0.076 0-0.151 0-0.151 0.076-0.076 0-0.151 0.076-0.227 0.076s-0.151 0.076-0.227 0.076c-0.076 0-0.151 0.076-0.227 0.076s-0.151 0.076-0.227 0.076c-0.076 0.076-0.151 0.076-0.227 0.151s-0.151 0.076-0.151 0.151-0.076 0.076-0.151 0.151-0.151 0.076-0.151 0.151c-0.227 0.076-0.227 0.151-0.303 0.227s-0.076 0.151-0.151 0.151h-4.314v-3.027h29.514c0.454 0 0.757-0.303 0.757-0.757v-11.351h6.433l1.286 1.514h-2.422c-0.454 0-0.757 0.303-0.757 0.757v4.162c0 0.454 0.303 0.757 0.757 0.757h6.811v7.946z"></path>
<path fill="#4e9dd3" style="fill: var(--color3, #4e9dd3)" d="M25.881 6.13c-0.681-3.557-3.784-6.13-7.492-6.13h-5.903c-3.632 0-6.735 2.573-7.492 6.13-0.908 0.303-1.589 1.135-1.589 2.119 0 0.605 0.227 1.135 0.605 1.514-0.378 0.378-0.605 0.908-0.605 1.514 0 0.984 0.681 1.892 1.589 2.119 0.681 3.557 3.784 6.13 7.492 6.13h5.903c3.632 0 6.735-2.573 7.492-6.13 0.908-0.303 1.589-1.135 1.589-2.119 0-0.605-0.227-1.135-0.605-1.514 0.378-0.378 0.605-0.908 0.605-1.514 0.076-0.984-0.605-1.816-1.589-2.119zM12.486 1.514h5.903c2.8 0 5.146 1.892 5.903 4.541h-0.303l-0.151-0.151c-0.303-0.454-0.832-0.605-1.362-0.605h-0.454c-0.53 0-1.059 0.227-1.438 0.605-0.076 0.076-0.227 0.151-0.378 0.151h-0.454c-0.151 0-0.303-0.076-0.378-0.151-0.378-0.454-0.908-0.605-1.438-0.605h-0.454c-0.53 0-1.059 0.227-1.438 0.605-0.076 0.076-0.227 0.151-0.378 0.151h-0.454c-0.151 0-0.303-0.076-0.378-0.151-0.303-0.454-0.832-0.605-1.362-0.605h-0.454c-0.53 0-1.059 0.227-1.438 0.605-0.076 0.076-0.227 0.151-0.378 0.151h-0.454c-0.151 0-0.303-0.076-0.378-0.151-0.378-0.454-0.908-0.605-1.438-0.605h-0.454c-0.53 0-1.059 0.227-1.438 0.605l-0.151 0.076h-0.227c0.681-2.573 3.103-4.465 5.827-4.465zM5.676 7.492h1.816l0.605-0.605c0.151-0.076 0.227-0.151 0.378-0.151h0.454c0.151 0 0.303 0.076 0.378 0.151 0.378 0.378 0.908 0.605 1.438 0.605h0.454c0.53 0 1.059-0.227 1.438-0.605 0.076-0.076 0.227-0.151 0.378-0.151h0.454c0.151 0 0.303 0.076 0.378 0.151 0.378 0.378 0.908 0.605 1.438 0.605h0.454c0.53 0 1.059-0.227 1.438-0.605 0.076-0.076 0.227-0.151 0.303-0.151h0.454c0.151 0 0.303 0.076 0.378 0.151 0.378 0.378 0.908 0.605 1.438 0.605h0.454c0.53 0 1.059-0.227 1.438-0.605 0.076-0.076 0.227-0.151 0.378-0.151h0.454c0.151 0 0.303 0.076 0.378 0.151l0.605 0.605h1.816c0.378 0 0.757 0.303 0.757 0.757s-0.303 0.757-0.757 0.757h-19.6c-0.378 0-0.757-0.303-0.757-0.757s0.378-0.757 0.757-0.757zM18.465 18.011h-5.903c-2.8 0-5.146-1.892-5.903-4.541h17.708c-0.757 2.724-3.103 4.541-5.903 4.541zM25.276 12.033h-19.6c-0.378 0-0.757-0.303-0.757-0.757s0.303-0.757 0.757-0.757h19.524c0.378 0 0.757 0.303 0.757 0.757s-0.303 0.757-0.681 0.757z"></path>
</symbol>
<symbol id="icon-footer_flour" viewBox="0 0 25 32">
<path fill="#4e9dd3" style="fill: var(--color3, #4e9dd3)" d="M18.651 6.115c-0.068-0.111-0.164-0.204-0.279-0.268s-0.245-0.098-0.377-0.098c-0.132 0-0.262 0.034-0.377 0.098s-0.211 0.156-0.279 0.268c-1.139 1.92-2.172 3.898-3.095 5.926-1.514-4.047-3.391-7.955-5.609-11.677l-0.001-0.002c-0.031-0.049-0.067-0.094-0.108-0.135-0.010-0.010-0.020-0.020-0.031-0.029-0.042-0.039-0.088-0.073-0.137-0.102l-0.002-0.001c-0.050-0.027-0.103-0.049-0.159-0.064-0.014-0.004-0.027-0.008-0.042-0.011-0.115-0.030-0.236-0.030-0.351 0-0.014 0.003-0.028 0.007-0.042 0.011-0.055 0.015-0.107 0.036-0.157 0.063l-0.003 0.001c-0.050 0.029-0.096 0.063-0.137 0.102-0.011 0.009-0.021 0.019-0.031 0.029-0.041 0.041-0.078 0.086-0.108 0.135l-0.001 0.002c-0.299 0.491-7.324 12.115-7.324 19.76 0 8.755 4.122 11.875 7.98 11.875 1.017 0 2.021-0.224 2.938-0.655s1.724-1.059 2.361-1.837c0.514 0.767 1.214 1.396 2.038 1.831s1.744 0.663 2.679 0.662c3.2 0 6.62-2.568 6.62-9.777 0-6.243-5.721-15.707-5.964-16.107zM7.98 30.499c-0.362-0.113-1.667-2.165-1.667-10.374 0-4.659 0.957-11.072 1.667-15.185 0.71 4.112 1.667 10.524 1.667 15.185 0 8.21-1.304 10.261-1.667 10.374zM1.528 20.125c0-4.531 2.763-10.793 4.844-14.868-0.705 4.153-1.586 10.262-1.586 14.868 0 3.609 0.247 7.678 1.192 9.993-2.789-1.136-4.45-4.75-4.45-9.993zM9.983 30.118c0.945-2.315 1.192-6.384 1.192-9.993 0-4.606-0.881-10.714-1.586-14.867 1.533 2.937 2.813 5.994 3.826 9.141l0 0.002c0.312 1.011 0.565 2.038 0.756 3.077 0.003 0.017 0.006 0.035 0.009 0.051 0.037 0.211 0.070 0.418 0.099 0.621 0.004 0.029 0.009 0.057 0.013 0.086 0.026 0.19 0.048 0.376 0.066 0.559 0.004 0.036 0.009 0.072 0.012 0.108 0.017 0.176 0.029 0.347 0.039 0.516 0.002 0.038 0.006 0.076 0.008 0.113 0.010 0.202 0.016 0.4 0.016 0.593 0 0.198-0.002 0.393-0.007 0.586-0.071 2.897-0.672 5.315-1.75 7.021-0.009 0.017-0.017 0.034-0.024 0.051-0.617 1.035-1.552 1.852-2.67 2.335v0zM17.995 30.5c-1.58 0-2.88-0.804-3.78-2.33 0.931-1.631 1.565-3.846 1.71-6.751 0.003-0.066 0.006-0.132 0.009-0.199 0.015-0.356 0.025-0.719 0.025-1.095 0-0.221-0.007-0.448-0.019-0.681-0.005-0.105-0.015-0.212-0.023-0.318-0.009-0.124-0.017-0.247-0.029-0.374-0.014-0.146-0.032-0.294-0.050-0.441-0.011-0.086-0.020-0.172-0.032-0.26-0.025-0.182-0.053-0.366-0.084-0.55-0.009-0.053-0.017-0.105-0.026-0.158-0.038-0.221-0.080-0.444-0.126-0.669l-0.010-0.049c-0.162-0.79-0.366-1.595-0.605-2.405 0.895-2.121 1.909-4.191 3.038-6.201 1.508 2.691 5.092 9.573 5.092 14.202 0 5.106-1.951 8.277-5.092 8.277z"></path>
</symbol>
<symbol id="icon-footer_heart" viewBox="0 0 37 32">
<path fill="#4e9dd3" style="fill: var(--color3, #4e9dd3)" d="M26.973 12.633c-0.558-2.915-3.136-4.998-6.133-4.998h-4.879c-2.997 0-5.576 2.152-6.133 4.998-0.767 0.208-1.324 0.902-1.324 1.735 0 0.486 0.209 0.902 0.488 1.249-0.279 0.347-0.488 0.764-0.488 1.249 0 0.833 0.558 1.527 1.324 1.735 0.558 2.915 3.136 4.998 6.133 4.998h4.879c2.997 0 5.576-2.152 6.133-4.998 0.767-0.208 1.324-0.902 1.324-1.735 0-0.486-0.209-0.902-0.488-1.249 0.279-0.347 0.488-0.764 0.488-1.249 0-0.833-0.558-1.527-1.324-1.735zM15.961 8.816h4.879c2.3 0 4.252 1.527 4.879 3.679h-0.209l-0.139-0.139c-0.348-0.347-0.767-0.486-1.185-0.486h-0.348c-0.418 0-0.836 0.139-1.185 0.486-0.070 0.069-0.209 0.139-0.279 0.139h-0.348c-0.139 0-0.209-0.069-0.279-0.139-0.348-0.347-0.767-0.486-1.185-0.486h-0.349c-0.418 0-0.836 0.139-1.185 0.486-0.070 0.069-0.209 0.139-0.279 0.139h-0.348c-0.139 0-0.209-0.069-0.279-0.139-0.348-0.347-0.767-0.486-1.185-0.486h-0.348c-0.418 0-0.836 0.139-1.185 0.486-0.070 0.069-0.209 0.139-0.279 0.139h-0.348c-0.139 0-0.209-0.069-0.279-0.139-0.348-0.347-0.767-0.486-1.185-0.486h-0.349c-0.418 0-0.836 0.139-1.185 0.486l-0.139 0.139h-0.488c0.558-2.082 2.509-3.679 4.809-3.679zM10.385 13.744h1.464l0.488-0.486c0.070-0.069 0.209-0.069 0.348-0.069h0.348c0.139 0 0.209 0.069 0.279 0.139 0.348 0.347 0.767 0.486 1.185 0.486h0.348c0.418 0 0.836-0.139 1.185-0.486 0.070-0.069 0.209-0.139 0.279-0.139h0.418c0.139 0 0.209 0.069 0.279 0.139 0.349 0.347 0.767 0.486 1.185 0.486h0.348c0.418 0 0.836-0.139 1.185-0.486 0.070-0.069 0.209-0.139 0.279-0.139h0.348c0.139 0 0.209 0.069 0.279 0.139 0.348 0.347 0.767 0.486 1.185 0.486h0.488c0.418 0 0.836-0.139 1.185-0.486 0.070-0.139 0.209-0.139 0.279-0.139h0.349c0.139 0 0.209 0.069 0.279 0.139l0.488 0.486h1.603c0.348 0 0.627 0.278 0.627 0.625s-0.279 0.625-0.627 0.625h-16.1c-0.348 0-0.627-0.278-0.627-0.625s0.279-0.694 0.627-0.694zM20.84 22.421h-4.879c-2.3 0-4.252-1.527-4.879-3.679h14.567c-0.558 2.082-2.509 3.679-4.809 3.679zM26.485 17.492h-16.1c-0.348 0-0.627-0.278-0.627-0.625s0.279-0.625 0.627-0.625h16.1c0.348 0 0.627 0.278 0.627 0.625s-0.348 0.625-0.627 0.625z"></path>
<path fill="#4e9dd3" style="fill: var(--color3, #4e9dd3)" d="M8.502 1.388c4.461 0 8.712 4.165 8.921 4.373 0.279 0.278 0.627 0.347 0.906 0.347s0.627-0.139 0.906-0.347c0.070 0 2.161-2.082 5.018-3.332 1.464-0.625 2.788-0.972 4.042-0.972 1.812 0 3.415 0.694 4.809 2.082 1.742 1.666 2.439 3.679 2.23 5.97-0.767 8.469-13.8 18.464-17.006 20.824-1.394-1.041-4.6-3.471-7.876-6.594-5.506-5.484-8.642-10.343-9.061-14.299-0.139-2.291 0.558-4.234 2.23-5.97 1.533-1.527 3.276-2.082 4.879-2.082zM8.502 0c-2.23 0-4.182 0.833-5.855 2.499-2.021 2.082-2.858 4.373-2.648 7.080 0.418 4.304 3.624 9.371 9.548 15.063 3.415 3.263 6.761 5.831 8.015 6.733l0.836 0.625 0.836-0.625c3.903-2.846 16.727-12.842 17.564-21.796 0.279-2.777-0.627-5.137-2.648-7.080-1.673-1.666-3.624-2.499-5.855-2.499-1.464 0-2.997 0.347-4.6 1.111-1.673 0.764-3.345 1.805-4.948 3.262h-0.070l-0.348 0.347c-0.627-0.694-5.018-4.72-9.827-4.72z"></path>
</symbol>
<symbol id="icon-inst" viewBox="0 0 32 32">
<path d="M22.552 0.262h-13.794c-4.685 0-8.496 3.811-8.496 8.496v13.794c0 4.685 3.811 8.496 8.496 8.496h13.794c4.685 0 8.496-3.811 8.496-8.496v-13.794c0-4.685-3.811-8.496-8.496-8.496zM28.317 22.552c0 3.179-2.586 5.764-5.765 5.764h-13.795c-3.178 0-5.764-2.586-5.764-5.764v-13.794c0-3.178 2.586-5.764 5.764-5.764h13.794c3.179 0 5.765 2.586 5.765 5.764v13.794h0z"></path>
<path d="M15.655 7.722c-4.374 0-7.933 3.559-7.933 7.933s3.559 7.933 7.933 7.933c4.374 0 7.933-3.558 7.933-7.933s-3.559-7.933-7.933-7.933zM15.655 20.855c-2.868 0-5.201-2.333-5.201-5.201s2.333-5.201 5.201-5.201 5.201 2.333 5.201 5.201c0 2.868-2.333 5.201-5.201 5.201z"></path>
<path d="M23.921 5.406c-0.526 0-1.043 0.213-1.415 0.586-0.374 0.371-0.588 0.889-0.588 1.417 0 0.526 0.215 1.043 0.588 1.417 0.371 0.371 0.889 0.586 1.415 0.586 0.528 0 1.044-0.215 1.417-0.586 0.373-0.373 0.586-0.89 0.586-1.417 0-0.528-0.213-1.045-0.586-1.417-0.371-0.373-0.889-0.586-1.417-0.586z"></path>
</symbol>
<symbol id="icon-sets_1" viewBox="0 0 32 32">
<path  d="M30.7 1.3v29.399h-29.399v-29.399h29.399zM30.7 0.485h-29.399c-0.449 0-0.816 0.367-0.816 0.816v29.399c0 0.449 0.367 0.816 0.816 0.816h29.399c0.449 0 0.816-0.367 0.816-0.816v-29.399c0-0.449-0.367-0.816-0.816-0.816z"></path>
<path  d="M16.428 9.496c0-0.326-0.122-0.612-0.326-0.816 0.204-0.204 0.326-0.489 0.326-0.816 0-0.571-0.367-1.019-0.856-1.183-0.408-1.916-2.080-3.303-4.078-3.303h-3.221c-1.998 0-3.67 1.427-4.037 3.303-0.489 0.163-0.856 0.612-0.856 1.183 0 0.326 0.122 0.612 0.326 0.816-0.204 0.204-0.326 0.489-0.326 0.816 0 0.571 0.367 1.019 0.856 1.182 0.367 1.916 2.080 3.303 4.037 3.303h3.221c1.957 0 3.67-1.427 4.037-3.303 0.53-0.163 0.897-0.652 0.897-1.182zM8.273 4.195h3.221c1.509 0 2.814 1.019 3.181 2.447h-0.163l-0.082-0.082c-0.204-0.204-0.489-0.326-0.775-0.326h-0.245c-0.285 0-0.571 0.122-0.775 0.326-0.041 0.041-0.122 0.082-0.204 0.082h-0.245c-0.082 0-0.163-0.041-0.204-0.082-0.204-0.204-0.489-0.326-0.775-0.326h-0.245c-0.285 0-0.571 0.122-0.775 0.326-0.041 0.041-0.122 0.082-0.204 0.082h-0.245c-0.082 0-0.163-0.041-0.204-0.082-0.204-0.204-0.489-0.326-0.775-0.326h-0.245c-0.285 0-0.571 0.122-0.775 0.326-0.041 0.041-0.122 0.082-0.204 0.082h-0.245c-0.082 0-0.163-0.041-0.204-0.082-0.204-0.204-0.489-0.326-0.775-0.326h-0.245c-0.285 0-0.571 0.122-0.775 0.326l-0.082 0.082h-0.163c0.408-1.427 1.713-2.447 3.221-2.447zM4.603 7.457h0.979l0.326-0.326c0.041-0.041 0.122-0.082 0.204-0.082h0.245c0.082 0 0.163 0.041 0.204 0.082 0.204 0.204 0.489 0.326 0.775 0.326h0.245c0.285 0 0.571-0.122 0.775-0.326 0.041-0.041 0.122-0.082 0.204-0.082h0.245c0.082 0 0.163 0.041 0.204 0.082 0.204 0.204 0.489 0.326 0.775 0.326h0.245c0.285 0 0.571-0.122 0.775-0.326 0.041-0.041 0.122-0.082 0.204-0.082h0.245c0.082 0 0.163 0.041 0.204 0.082 0.204 0.204 0.489 0.326 0.775 0.326h0.245c0.285 0 0.571-0.122 0.775-0.326 0.041-0.041 0.122-0.082 0.204-0.082h0.245c0.082 0 0.163 0.041 0.204 0.082l0.326 0.326h0.979c0.245 0 0.408 0.163 0.408 0.408s-0.163 0.408-0.408 0.408h-10.602c-0.245 0-0.408-0.163-0.408-0.408s0.163-0.408 0.408-0.408zM4.603 9.089h10.602c0.245 0 0.408 0.163 0.408 0.408s-0.163 0.408-0.408 0.408h-10.602c-0.245 0-0.408-0.163-0.408-0.408s0.163-0.408 0.408-0.408zM11.494 13.166h-3.221c-1.509 0-2.813-1.019-3.181-2.447h9.623c-0.408 1.427-1.713 2.447-3.221 2.447z"></path>
<path  d="M27.764 21.362c-0.367-1.916-2.080-3.303-4.037-3.303h-3.221c-1.957 0-3.67 1.427-4.037 3.303-0.489 0.163-0.856 0.612-0.856 1.183 0 0.326 0.122 0.612 0.326 0.816-0.204 0.204-0.326 0.489-0.326 0.816 0 0.571 0.367 1.019 0.856 1.183 0.367 1.916 2.080 3.303 4.037 3.303h3.221c1.957 0 3.67-1.427 4.037-3.303 0.489-0.163 0.856-0.612 0.856-1.183 0-0.326-0.122-0.612-0.326-0.816 0.204-0.204 0.326-0.489 0.326-0.816 0.041-0.571-0.326-1.019-0.856-1.183zM20.506 18.875h3.221c1.509 0 2.814 1.019 3.18 2.447h-0.163l-0.082-0.082c-0.204-0.204-0.489-0.326-0.775-0.326h-0.245c-0.285 0-0.571 0.122-0.775 0.326-0.041 0.041-0.122 0.082-0.204 0.082h-0.245c-0.082 0-0.163-0.041-0.204-0.082-0.204-0.204-0.489-0.326-0.775-0.326h-0.245c-0.285 0-0.571 0.122-0.775 0.326-0.041 0.041-0.122 0.082-0.204 0.082h-0.245c-0.082 0-0.163-0.041-0.204-0.082-0.204-0.204-0.489-0.326-0.775-0.326h-0.245c-0.285 0-0.571 0.122-0.775 0.326-0.041 0.041-0.122 0.082-0.204 0.082h-0.245c-0.082 0-0.163-0.041-0.204-0.082-0.204-0.204-0.489-0.326-0.775-0.326h-0.245c-0.285 0-0.571 0.122-0.775 0.326l-0.082 0.082h-0.163c0.408-1.427 1.713-2.447 3.221-2.447zM16.836 22.137h0.979l0.326-0.326c0.041-0.041 0.122-0.082 0.204-0.082h0.245c0.082 0 0.163 0.041 0.204 0.082 0.204 0.204 0.489 0.326 0.775 0.326h0.245c0.285 0 0.571-0.122 0.775-0.326 0.041-0.041 0.122-0.082 0.204-0.082h0.245c0.082 0 0.163 0.041 0.204 0.082 0.204 0.204 0.489 0.326 0.775 0.326h0.245c0.285 0 0.571-0.122 0.775-0.326 0.041-0.041 0.122-0.082 0.204-0.082h0.245c0.082 0 0.163 0.041 0.204 0.082 0.204 0.204 0.489 0.326 0.775 0.326h0.245c0.285 0 0.571-0.122 0.775-0.326 0.041-0.041 0.122-0.082 0.204-0.082h0.245c0.082 0 0.163 0.041 0.204 0.082l0.326 0.326h0.979c0.245 0 0.408 0.163 0.408 0.408s-0.163 0.408-0.408 0.408h-10.602c-0.245 0-0.408-0.163-0.408-0.408s0.163-0.408 0.408-0.408zM23.727 27.845h-3.221c-1.509 0-2.814-1.019-3.181-2.447h9.623c-0.408 1.427-1.713 2.447-3.221 2.447zM27.438 24.583h-10.602c-0.245 0-0.408-0.163-0.408-0.408s0.163-0.408 0.408-0.408h10.602c0.245 0 0.408 0.163 0.408 0.408s-0.204 0.408-0.408 0.408z"></path>
<path  d="M10.638 16.469c-0.163-0.489-0.612-0.856-1.183-0.856-0.326 0-0.612 0.122-0.816 0.326-0.204-0.204-0.489-0.326-0.816-0.326-0.571 0-1.019 0.367-1.182 0.856-1.917 0.367-3.303 2.080-3.303 4.037v3.221c0 1.957 1.427 3.67 3.303 4.037 0.163 0.489 0.612 0.856 1.182 0.856 0.326 0 0.612-0.122 0.816-0.326 0.204 0.204 0.489 0.326 0.816 0.326 0.571 0 1.019-0.367 1.183-0.856 1.916-0.367 3.303-2.080 3.303-4.037v-3.221c0.041-1.957-1.386-3.67-3.303-4.037zM4.195 23.727v-3.221c0-1.509 1.019-2.814 2.447-3.181v0.163l-0.082 0.082c-0.204 0.204-0.326 0.489-0.326 0.775v0.245c0 0.285 0.122 0.571 0.326 0.775 0.041 0.041 0.082 0.122 0.082 0.204v0.245c0 0.082-0.041 0.163-0.082 0.204-0.204 0.204-0.326 0.489-0.326 0.775v0.245c0 0.285 0.122 0.571 0.326 0.775 0.041 0.041 0.082 0.122 0.082 0.204v0.245c0 0.082-0.041 0.163-0.082 0.204-0.204 0.204-0.326 0.489-0.326 0.775v0.245c0 0.285 0.122 0.571 0.326 0.775 0.041 0.041 0.082 0.122 0.082 0.204v0.245c0 0.082-0.041 0.163-0.082 0.204-0.204 0.204-0.326 0.489-0.326 0.775v0.245c0 0.285 0.122 0.571 0.326 0.775l0.082 0.082v0.163c-1.427-0.408-2.447-1.713-2.447-3.221zM7.865 27.846c-0.245 0-0.408-0.163-0.408-0.408v-0.979l-0.326-0.326c-0.041-0.041-0.082-0.122-0.082-0.204v-0.245c0-0.082 0.041-0.163 0.082-0.204 0.204-0.204 0.326-0.489 0.326-0.775v-0.245c0-0.285-0.122-0.571-0.326-0.775-0.041-0.041-0.082-0.122-0.082-0.204v-0.245c0-0.082 0.041-0.163 0.082-0.204 0.204-0.204 0.326-0.489 0.326-0.775v-0.245c0-0.285-0.122-0.571-0.326-0.775-0.041-0.041-0.082-0.122-0.082-0.204v-0.245c0-0.082 0.041-0.163 0.082-0.204 0.204-0.204 0.326-0.489 0.326-0.775v-0.245c0-0.285-0.122-0.571-0.326-0.775-0.041-0.041-0.082-0.122-0.082-0.204v-0.245c0-0.082 0.041-0.163 0.082-0.204l0.326-0.326v-0.979c0-0.245 0.163-0.408 0.408-0.408s0.408 0.163 0.408 0.408v10.602c0 0.204-0.204 0.408-0.408 0.408zM9.904 27.438c0 0.245-0.163 0.408-0.408 0.408s-0.408-0.163-0.408-0.408v-10.602c0-0.245 0.163-0.408 0.408-0.408s0.408 0.163 0.408 0.408v10.602zM13.166 23.727c0 1.509-1.019 2.814-2.447 3.18v-9.582c1.427 0.367 2.447 1.672 2.447 3.181v3.221z"></path>
<path  d="M25.317 4.236c-0.163-0.489-0.612-0.856-1.183-0.856-0.326 0-0.612 0.122-0.815 0.326-0.204-0.204-0.489-0.326-0.816-0.326-0.571 0-1.019 0.367-1.183 0.856-1.916 0.367-3.303 2.080-3.303 4.037v3.221c0 1.957 1.427 3.67 3.303 4.037 0.163 0.489 0.612 0.856 1.183 0.856 0.326 0 0.612-0.122 0.816-0.326 0.204 0.204 0.489 0.326 0.815 0.326 0.571 0 1.019-0.367 1.183-0.856 1.916-0.367 3.303-2.080 3.303-4.037v-3.221c0.041-1.957-1.386-3.67-3.303-4.037zM18.875 11.494v-3.221c0-1.509 1.019-2.813 2.447-3.181v9.623c-1.427-0.408-2.447-1.713-2.447-3.221zM22.544 15.613c-0.245 0-0.408-0.163-0.408-0.408v-10.602c0-0.245 0.163-0.408 0.408-0.408s0.408 0.163 0.408 0.408v10.602c0 0.204-0.204 0.408-0.408 0.408zM24.583 14.226v0.979c0 0.245-0.163 0.408-0.408 0.408s-0.408-0.163-0.408-0.408v-10.602c0-0.245 0.163-0.408 0.408-0.408s0.408 0.163 0.408 0.408v0.979l0.326 0.326c0.041 0.041 0.082 0.122 0.082 0.204v0.245c0 0.082-0.041 0.163-0.082 0.204-0.204 0.204-0.326 0.489-0.326 0.775v0.245c0 0.285 0.122 0.571 0.326 0.775 0.041 0.041 0.082 0.122 0.082 0.204v0.245c0 0.082-0.041 0.163-0.082 0.204-0.204 0.204-0.326 0.489-0.326 0.775v0.245c0 0.285 0.122 0.571 0.326 0.775 0.041 0.041 0.082 0.122 0.082 0.204v0.245c0 0.082-0.041 0.163-0.082 0.204-0.204 0.204-0.326 0.489-0.326 0.775v0.245c0 0.285 0.122 0.571 0.326 0.775 0.041 0.041 0.082 0.122 0.082 0.204v0.245c0 0.082-0.041 0.163-0.082 0.204l-0.326 0.326zM27.845 11.494c0 1.509-1.019 2.814-2.447 3.181v-0.163l0.082-0.082c0.204-0.204 0.326-0.489 0.326-0.775v-0.245c0-0.285-0.122-0.571-0.326-0.775-0.041-0.041-0.082-0.122-0.082-0.204v-0.245c0-0.082 0.041-0.163 0.082-0.204 0.204-0.204 0.326-0.489 0.326-0.775v-0.245c0-0.285-0.122-0.571-0.326-0.775-0.041-0.041-0.082-0.122-0.082-0.204v-0.245c0-0.082 0.041-0.163 0.082-0.204 0.204-0.204 0.326-0.489 0.326-0.775v-0.245c0-0.285-0.122-0.571-0.326-0.775-0.041-0.041-0.082-0.122-0.082-0.204v-0.245c0-0.082 0.041-0.163 0.082-0.204 0.204-0.204 0.326-0.489 0.326-0.775v-0.245c0-0.285-0.122-0.571-0.326-0.775l-0.082-0.082v-0.163c1.427 0.367 2.447 1.672 2.447 3.181v3.262z"></path>
</symbol>
<symbol id="icon-sets_2" viewBox="0 0 40 32">
<path fill="#e67285" style="fill: var(--color5, #e67285)" d="M25.13 3.639c-0.344-1.777-1.948-3.129-3.781-3.129h-3.017c-1.833 0-3.437 1.352-3.781 3.129-0.496 0.155-0.84 0.579-0.84 1.12 0 0.309 0.115 0.579 0.306 0.772-0.191 0.193-0.306 0.464-0.306 0.772 0 0.541 0.344 0.966 0.802 1.12 0.344 1.815 1.948 3.129 3.781 3.129h3.017c1.833 0 3.437-1.352 3.781-3.129 0.458-0.154 0.802-0.579 0.802-1.12 0-0.309-0.115-0.579-0.306-0.772 0.191-0.193 0.306-0.463 0.306-0.772 0.038-0.541-0.306-0.966-0.764-1.12zM18.332 1.283h3.017c1.413 0 2.635 0.966 2.979 2.318h-0.153l-0.076-0.077c-0.191-0.193-0.42-0.309-0.726-0.309h-0.229c-0.267 0-0.535 0.116-0.726 0.309-0.038 0.039-0.115 0.077-0.191 0.077h-0.229c-0.076 0-0.153-0.039-0.191-0.077-0.191-0.193-0.42-0.309-0.726-0.309h-0.229c-0.267 0-0.535 0.116-0.726 0.309-0.038 0.039-0.115 0.077-0.191 0.077h-0.229c-0.076 0-0.153-0.039-0.191-0.077-0.191-0.193-0.42-0.309-0.726-0.309h-0.229c-0.267 0-0.535 0.116-0.726 0.309-0.038 0.039-0.115 0.077-0.191 0.077h-0.229c-0.076 0-0.153-0.039-0.191-0.077-0.191-0.193-0.42-0.309-0.726-0.309h-0.229c-0.267 0-0.535 0.116-0.726 0.309l-0.076 0.077h-0.153c0.382-1.352 1.604-2.318 3.017-2.318zM14.857 4.373h0.917l0.306-0.309c0.076-0.039 0.153-0.077 0.191-0.077h0.229c0.076 0 0.153 0.039 0.191 0.077 0.191 0.193 0.458 0.309 0.726 0.309h0.229c0.267 0 0.535-0.116 0.726-0.309 0.076-0.039 0.153-0.077 0.191-0.077h0.229c0.076 0 0.153 0.039 0.191 0.077 0.191 0.193 0.458 0.309 0.726 0.309h0.229c0.267 0 0.535-0.116 0.726-0.309 0.076-0.039 0.153-0.077 0.191-0.077h0.229c0.076 0 0.153 0.039 0.191 0.077 0.191 0.193 0.458 0.309 0.726 0.309h0.229c0.267 0 0.535-0.116 0.726-0.309 0.076-0.039 0.153-0.077 0.191-0.077h0.229c0.076 0 0.153 0.039 0.191 0.077l0.306 0.309h0.917c0.229 0 0.382 0.154 0.382 0.386s-0.153 0.386-0.382 0.386h-9.93c-0.229 0-0.382-0.154-0.382-0.386s0.191-0.386 0.382-0.386zM21.349 9.781h-3.017c-1.413 0-2.635-0.966-2.979-2.318h9.013c-0.382 1.352-1.604 2.318-3.017 2.318zM24.786 6.691h-9.93c-0.229 0-0.382-0.154-0.382-0.386s0.153-0.386 0.382-0.386h9.93c0.229 0 0.382 0.154 0.382 0.386s-0.153 0.386-0.382 0.386z"></path>
<path fill="#e67285" style="fill: var(--color5, #e67285)" d="M11.725 24.729c-0.344-1.815-1.948-3.129-3.781-3.129h-3.017c-1.833 0-3.437 1.352-3.781 3.129-0.496 0.154-0.84 0.579-0.84 1.12 0 0.309 0.115 0.579 0.306 0.773-0.191 0.193-0.306 0.463-0.306 0.773 0 0.541 0.344 0.966 0.802 1.12 0.344 1.815 1.948 3.129 3.781 3.129h3.017c1.833 0 3.437-1.352 3.781-3.129 0.458-0.154 0.802-0.579 0.802-1.12 0-0.309-0.115-0.579-0.306-0.773 0.191-0.193 0.306-0.463 0.306-0.773 0.038-0.541-0.306-0.966-0.764-1.12zM4.927 22.373h3.017c1.413 0 2.635 0.966 2.979 2.318h-0.153l-0.076-0.077c-0.191-0.193-0.458-0.309-0.726-0.309h-0.229c-0.267 0-0.535 0.116-0.726 0.309-0.038 0.039-0.115 0.077-0.191 0.077h-0.229c-0.076 0-0.153-0.039-0.191-0.077-0.191-0.193-0.458-0.309-0.726-0.309h-0.229c-0.267 0-0.535 0.116-0.726 0.309-0.038 0.039-0.115 0.077-0.191 0.077h-0.229c-0.076 0-0.153-0.039-0.191-0.077-0.191-0.193-0.458-0.309-0.726-0.309h-0.229c-0.267 0-0.535 0.116-0.726 0.309-0.038 0.039-0.115 0.077-0.191 0.077h-0.229c-0.076 0-0.153-0.039-0.191-0.077-0.191-0.193-0.458-0.309-0.726-0.309h-0.229c-0.267 0-0.535 0.116-0.726 0.309l-0.076 0.077h-0.153c0.382-1.352 1.604-2.318 3.017-2.318zM1.452 25.463h0.917l0.306-0.309c0.038-0.039 0.115-0.077 0.191-0.077h0.229c0.076 0 0.153 0.039 0.191 0.077 0.191 0.193 0.458 0.309 0.726 0.309h0.229c0.267 0 0.535-0.116 0.726-0.309 0.038-0.039 0.115-0.077 0.191-0.077h0.229c0.076 0 0.153 0.039 0.191 0.077 0.191 0.193 0.458 0.309 0.726 0.309h0.229c0.267 0 0.535-0.116 0.726-0.309 0.038-0.039 0.115-0.077 0.191-0.077h0.229c0.076 0 0.153 0.039 0.191 0.077 0.191 0.193 0.458 0.309 0.726 0.309h0.229c0.267 0 0.535-0.116 0.726-0.309 0.038-0.039 0.115-0.077 0.191-0.077h0.229c0.076 0 0.153 0.039 0.191 0.077l0.306 0.309h0.917c0.229 0 0.382 0.154 0.382 0.386s-0.153 0.386-0.382 0.386h-9.93c-0.229 0-0.382-0.155-0.382-0.386s0.153-0.386 0.382-0.386zM7.906 30.87h-3.017c-1.413 0-2.635-0.966-2.979-2.318h9.013c-0.382 1.352-1.604 2.318-3.017 2.318zM11.382 27.78h-9.93c-0.229 0-0.382-0.154-0.382-0.386s0.153-0.386 0.382-0.386h9.93c0.229 0 0.382 0.154 0.382 0.386 0 0.193-0.153 0.386-0.382 0.386z"></path>
<path fill="#e67285" style="fill: var(--color5, #e67285)" d="M25.245 24.729c-0.344-1.815-1.948-3.129-3.781-3.129h-3.017c-1.833 0-3.437 1.352-3.781 3.129-0.458 0.154-0.802 0.579-0.802 1.12 0 0.309 0.115 0.579 0.306 0.773-0.191 0.193-0.306 0.463-0.306 0.773 0 0.541 0.344 0.966 0.802 1.12 0.344 1.815 1.948 3.129 3.781 3.129h3.017c1.833 0 3.437-1.352 3.781-3.129 0.458-0.154 0.802-0.579 0.802-1.12 0-0.309-0.115-0.579-0.306-0.773 0.191-0.193 0.306-0.463 0.306-0.773 0-0.541-0.344-0.966-0.802-1.12zM18.447 22.373h3.017c1.413 0 2.635 0.966 2.979 2.318h-0.153l-0.076-0.077c-0.191-0.193-0.458-0.309-0.726-0.309h-0.229c-0.267 0-0.535 0.116-0.726 0.309-0.038 0.039-0.115 0.077-0.191 0.077h-0.229c-0.076 0-0.153-0.039-0.191-0.077-0.191-0.193-0.458-0.309-0.726-0.309h-0.229c-0.267 0-0.535 0.116-0.726 0.309-0.038 0.039-0.115 0.077-0.191 0.077h-0.229c-0.076 0-0.153-0.039-0.191-0.077-0.191-0.193-0.458-0.309-0.726-0.309h-0.229c-0.267 0-0.535 0.116-0.726 0.309-0.038 0.039-0.115 0.077-0.191 0.077h-0.229c-0.076 0-0.153-0.039-0.191-0.077-0.191-0.193-0.458-0.309-0.726-0.309h-0.229c-0.267 0-0.535 0.116-0.726 0.309l-0.076 0.077h-0.153c0.382-1.352 1.604-2.318 3.017-2.318zM14.971 25.463h0.917l0.306-0.309c0.038-0.039 0.115-0.077 0.191-0.077h0.229c0.076 0 0.153 0.039 0.191 0.077 0.191 0.193 0.458 0.309 0.726 0.309h0.229c0.267 0 0.535-0.116 0.726-0.309 0.038-0.039 0.115-0.077 0.191-0.077h0.229c0.076 0 0.153 0.039 0.191 0.077 0.191 0.193 0.458 0.309 0.726 0.309h0.229c0.267 0 0.535-0.116 0.726-0.309 0.038-0.039 0.115-0.077 0.191-0.077h0.229c0.076 0 0.153 0.039 0.191 0.077 0.191 0.193 0.458 0.309 0.726 0.309h0.229c0.267 0 0.535-0.116 0.726-0.309 0.038-0.039 0.115-0.077 0.191-0.077h0.229c0.076 0 0.153 0.039 0.191 0.077l0.306 0.309h0.917c0.229 0 0.382 0.154 0.382 0.386s-0.153 0.386-0.382 0.386h-9.93c-0.229 0-0.382-0.155-0.382-0.386s0.191-0.386 0.382-0.386zM21.464 30.87h-3.017c-1.413 0-2.635-0.966-2.979-2.318h9.013c-0.382 1.352-1.604 2.318-3.017 2.318zM24.901 27.78h-9.93c-0.229 0-0.382-0.154-0.382-0.386s0.153-0.386 0.382-0.386h9.93c0.229 0 0.382 0.154 0.382 0.386 0 0.193-0.153 0.386-0.382 0.386z"></path>
<path fill="#e67285" style="fill: var(--color5, #e67285)" d="M38.764 24.729c-0.344-1.815-1.948-3.129-3.781-3.129h-3.017c-1.833 0-3.437 1.352-3.781 3.129-0.458 0.154-0.802 0.579-0.802 1.12 0 0.309 0.115 0.579 0.306 0.773-0.191 0.193-0.306 0.463-0.306 0.773 0 0.541 0.344 0.966 0.802 1.12 0.344 1.815 1.948 3.129 3.781 3.129h3.017c1.833 0 3.437-1.352 3.781-3.129 0.458-0.154 0.802-0.579 0.802-1.12 0-0.309-0.115-0.579-0.306-0.773 0.191-0.193 0.306-0.463 0.306-0.773 0.038-0.541-0.306-0.966-0.802-1.12zM31.966 22.373h3.017c1.413 0 2.635 0.966 2.979 2.318h-0.153l-0.076-0.077c-0.191-0.193-0.458-0.309-0.726-0.309h-0.229c-0.267 0-0.535 0.116-0.726 0.309-0.038 0.039-0.115 0.077-0.191 0.077h-0.229c-0.076 0-0.153-0.039-0.191-0.077-0.191-0.193-0.458-0.309-0.726-0.309h-0.229c-0.267 0-0.535 0.116-0.726 0.309-0.038 0.039-0.115 0.077-0.191 0.077h-0.229c-0.076 0-0.153-0.039-0.191-0.077-0.191-0.193-0.458-0.309-0.726-0.309h-0.229c-0.267 0-0.535 0.116-0.726 0.309-0.038 0.039-0.115 0.077-0.191 0.077h-0.229c-0.076 0-0.153-0.039-0.191-0.077-0.191-0.193-0.458-0.309-0.726-0.309h-0.229c-0.267 0-0.535 0.116-0.726 0.309l-0.076 0.077h-0.153c0.382-1.352 1.604-2.318 3.017-2.318zM28.529 25.463h0.917l0.306-0.309c0.038-0.039 0.115-0.077 0.191-0.077h0.229c0.076 0 0.153 0.039 0.191 0.077 0.191 0.193 0.458 0.309 0.726 0.309h0.229c0.267 0 0.535-0.116 0.726-0.309 0.038-0.039 0.115-0.077 0.191-0.077h0.229c0.076 0 0.153 0.039 0.191 0.077 0.191 0.193 0.458 0.309 0.726 0.309h0.229c0.267 0 0.535-0.116 0.726-0.309 0.038-0.039 0.115-0.077 0.191-0.077h0.229c0.076 0 0.153 0.039 0.191 0.077 0.191 0.193 0.458 0.309 0.726 0.309h0.229c0.267 0 0.535-0.116 0.726-0.309 0.038-0.039 0.115-0.077 0.191-0.077h0.229c0.076 0 0.153 0.039 0.191 0.077l0.306 0.309h0.917c0.229 0 0.382 0.154 0.382 0.386s-0.153 0.386-0.382 0.386h-9.93c-0.229 0-0.382-0.155-0.382-0.386s0.153-0.386 0.382-0.386zM34.983 30.87h-3.017c-1.413 0-2.635-0.966-2.979-2.318h9.013c-0.382 1.352-1.604 2.318-3.017 2.318zM38.459 27.78h-9.93c-0.229 0-0.382-0.154-0.382-0.386s0.153-0.386 0.382-0.386h9.93c0.229 0 0.382 0.154 0.382 0.386 0 0.193-0.191 0.386-0.382 0.386z"></path>
<path fill="#e67285" style="fill: var(--color5, #e67285)" d="M18.485 14.184c-0.344-1.815-1.948-3.129-3.781-3.129h-3.017c-1.833 0-3.437 1.352-3.781 3.129-0.458 0.155-0.802 0.579-0.802 1.12 0 0.309 0.115 0.579 0.306 0.773-0.191 0.193-0.306 0.463-0.306 0.773 0 0.541 0.344 0.966 0.802 1.12 0.344 1.815 1.948 3.129 3.781 3.129h3.017c1.833 0 3.437-1.352 3.781-3.129 0.458-0.154 0.802-0.579 0.802-1.12 0-0.309-0.115-0.579-0.306-0.773 0.191-0.193 0.306-0.464 0.306-0.773 0-0.541-0.344-1.004-0.802-1.12zM11.687 11.789h3.017c1.413 0 2.635 0.966 2.979 2.318h-0.153l-0.076-0.077c-0.191-0.193-0.458-0.309-0.726-0.309h-0.229c-0.267 0-0.535 0.116-0.726 0.309-0.038 0.039-0.115 0.077-0.191 0.077h-0.229c-0.076 0-0.153-0.039-0.191-0.077-0.191-0.193-0.458-0.309-0.726-0.309h-0.229c-0.267 0-0.535 0.116-0.726 0.309-0.038 0.039-0.115 0.077-0.191 0.077h-0.229c-0.076 0-0.153-0.039-0.191-0.077-0.191-0.193-0.458-0.309-0.726-0.309h-0.229c-0.267 0-0.535 0.116-0.726 0.309-0.038 0.039-0.115 0.077-0.191 0.077h-0.229c-0.076 0-0.153-0.039-0.191-0.077-0.191-0.193-0.458-0.309-0.726-0.309h-0.229c-0.267 0-0.535 0.116-0.726 0.309l-0.076 0.077h-0.153c0.382-1.352 1.604-2.318 3.017-2.318zM8.212 14.879h0.917l0.306-0.309c0.038-0.039 0.115-0.077 0.191-0.077h0.229c0.076 0 0.153 0.039 0.191 0.077 0.191 0.193 0.458 0.309 0.726 0.309h0.229c0.267 0 0.535-0.116 0.726-0.309 0.038-0.039 0.115-0.077 0.191-0.077h0.229c0.076 0 0.153 0.039 0.191 0.077 0.191 0.193 0.458 0.309 0.726 0.309h0.229c0.267 0 0.535-0.116 0.726-0.309 0.038-0.039 0.115-0.077 0.191-0.077h0.229c0.076 0 0.153 0.039 0.191 0.077 0.191 0.193 0.458 0.309 0.726 0.309h0.229c0.267 0 0.535-0.116 0.726-0.309 0.038-0.039 0.115-0.077 0.191-0.077h0.229c0.076 0 0.153 0.039 0.191 0.077l0.306 0.309h0.917c0.229 0 0.382 0.155 0.382 0.386s-0.153 0.386-0.382 0.386h-9.93c-0.229 0-0.382-0.155-0.382-0.386s0.191-0.386 0.382-0.386zM14.704 20.287h-3.017c-1.413 0-2.635-0.966-2.979-2.318h9.013c-0.42 1.352-1.604 2.318-3.017 2.318zM18.141 17.197h-9.93c-0.229 0-0.382-0.154-0.382-0.386s0.153-0.386 0.382-0.386h9.93c0.229 0 0.382 0.154 0.382 0.386s-0.153 0.386-0.382 0.386z"></path>
<path fill="#e67285" style="fill: var(--color5, #e67285)" d="M32.004 14.184c-0.344-1.815-1.948-3.129-3.781-3.129h-3.017c-1.833 0-3.437 1.352-3.781 3.129-0.458 0.155-0.802 0.579-0.802 1.12 0 0.309 0.115 0.579 0.306 0.773-0.191 0.193-0.306 0.463-0.306 0.773 0 0.541 0.344 0.966 0.802 1.12 0.344 1.815 1.948 3.129 3.781 3.129h3.017c1.833 0 3.437-1.352 3.781-3.129 0.458-0.154 0.802-0.579 0.802-1.12 0-0.309-0.115-0.579-0.306-0.773 0.191-0.193 0.306-0.464 0.306-0.773 0-0.541-0.344-1.004-0.802-1.12zM25.206 11.789h3.017c1.413 0 2.635 0.966 2.979 2.318h-0.153l-0.076-0.077c-0.191-0.193-0.458-0.309-0.726-0.309h-0.229c-0.267 0-0.535 0.116-0.726 0.309-0.038 0.039-0.115 0.077-0.191 0.077h-0.229c-0.076 0-0.153-0.039-0.191-0.077-0.191-0.193-0.458-0.309-0.726-0.309h-0.229c-0.267 0-0.535 0.116-0.726 0.309-0.038 0.039-0.115 0.077-0.191 0.077h-0.229c-0.076 0-0.153-0.039-0.191-0.077-0.191-0.193-0.458-0.309-0.726-0.309h-0.229c-0.267 0-0.535 0.116-0.726 0.309-0.038 0.039-0.115 0.077-0.191 0.077h-0.229c-0.076 0-0.153-0.039-0.191-0.077-0.191-0.193-0.458-0.309-0.726-0.309h-0.229c-0.267 0-0.535 0.116-0.726 0.309l-0.076 0.077h-0.153c0.382-1.352 1.604-2.318 3.017-2.318zM21.731 14.879h0.917l0.306-0.309c0.038-0.039 0.115-0.077 0.191-0.077h0.229c0.076 0 0.153 0.039 0.191 0.077 0.191 0.193 0.458 0.309 0.726 0.309h0.229c0.267 0 0.535-0.116 0.726-0.309 0.038-0.039 0.115-0.077 0.191-0.077h0.229c0.076 0 0.153 0.039 0.191 0.077 0.191 0.193 0.458 0.309 0.726 0.309h0.229c0.267 0 0.535-0.116 0.726-0.309 0.038-0.039 0.115-0.077 0.191-0.077h0.229c0.076 0 0.153 0.039 0.191 0.077 0.191 0.193 0.458 0.309 0.726 0.309h0.229c0.267 0 0.535-0.116 0.726-0.309 0.038-0.039 0.115-0.077 0.191-0.077h0.229c0.076 0 0.153 0.039 0.191 0.077l0.306 0.309h0.917c0.229 0 0.382 0.155 0.382 0.386s-0.153 0.386-0.382 0.386h-9.93c-0.229 0-0.382-0.155-0.382-0.386s0.191-0.386 0.382-0.386zM28.224 20.287h-3.017c-1.413 0-2.635-0.966-2.979-2.318h9.013c-0.382 1.352-1.604 2.318-3.017 2.318zM31.661 17.197h-9.93c-0.229 0-0.382-0.154-0.382-0.386s0.153-0.386 0.382-0.386h9.93c0.229 0 0.382 0.154 0.382 0.386s-0.153 0.386-0.382 0.386z"></path>
</symbol>
<symbol id="icon-sets_3" viewBox="0 0 32 32">
<path fill="#9fce9e" style="fill: var(--color6, #9fce9e)" d="M24.956 11.639c0.283-2.177-0.667-4.162-2.538-5.309-0.172-0.107-0.351-0.209-0.532-0.308-2.878-1.571-6.314-1.881-9.427-0.85-3.155 1.044-5.662 3.29-7.061 6.324-2.483 5.392-0.562 11.84 4.468 14.998 0.212 0.134 0.427 0.26 0.643 0.378 0.156 0.085 0.312 0.165 0.467 0.241 1.972 0.966 4.237 0.695 5.911-0.707 1.759-1.474 2.452-3.779 1.809-6.014 0 0 0 0-0-0.001-0.28-0.97-0.231-1.813 0.146-2.503 0.376-0.688 1.057-1.184 2.025-1.474 2.225-0.667 3.792-2.496 4.088-4.774zM17.974 17.413c-0.499 0.915-0.578 2.040-0.228 3.252 0.533 1.853-0.040 3.762-1.494 4.981-1.39 1.165-3.199 1.381-4.84 0.577-0.34-0.166-0.684-0.357-1.018-0.567-4.61-2.895-6.371-8.804-4.096-13.746 1.282-2.782 3.581-4.842 6.472-5.799 2.854-0.945 6.004-0.66 8.642 0.78 0.164 0.090 0.326 0.181 0.486 0.281 1.532 0.938 2.308 2.561 2.076 4.339-0.245 1.886-1.544 3.401-3.39 3.954-1.21 0.361-2.112 1.035-2.61 1.948z"></path>
<path fill="#9fce9e" style="fill: var(--color6, #9fce9e)" d="M21.073 7.513c-0.95-0.519-2.145-0.167-2.664 0.783s-0.167 2.145 0.783 2.663c0.95 0.519 2.145 0.168 2.663-0.783s0.168-2.145-0.782-2.664zM19.666 10.091c-0.471-0.257-0.646-0.85-0.388-1.321s0.85-0.645 1.321-0.388c0.471 0.257 0.645 0.85 0.388 1.321s-0.849 0.645-1.32 0.388z"></path>
<path fill="#9fce9e" style="fill: var(--color6, #9fce9e)" d="M13.204 21.932c-0.95-0.519-2.145-0.168-2.664 0.782s-0.167 2.145 0.783 2.664c0.95 0.519 2.145 0.167 2.663-0.783s0.168-2.145-0.783-2.663zM11.797 24.51c-0.471-0.257-0.645-0.85-0.388-1.321s0.85-0.645 1.321-0.388c0.471 0.257 0.645 0.849 0.388 1.32s-0.85 0.646-1.321 0.388z"></path>
<path fill="#9fce9e" style="fill: var(--color6, #9fce9e)" d="M10.711 13.451c0.519-0.95 0.168-2.145-0.782-2.664s-2.145-0.167-2.664 0.783c-0.519 0.95-0.167 2.145 0.783 2.663s2.145 0.168 2.663-0.783zM8.522 13.365c-0.471-0.257-0.646-0.849-0.388-1.321s0.85-0.645 1.321-0.388c0.471 0.257 0.645 0.85 0.388 1.321s-0.849 0.645-1.32 0.388z"></path>
<path fill="#9fce9e" style="fill: var(--color6, #9fce9e)" d="M7.764 16.877c-1.038 0.306-1.635 1.399-1.33 2.437 0.148 0.503 0.483 0.919 0.943 1.17s0.991 0.308 1.494 0.16c0.503-0.148 0.918-0.482 1.17-0.943s0.309-0.991 0.16-1.494c-0.305-1.038-1.398-1.635-2.437-1.33zM8.592 19.695c-0.5 0.147-1.062-0.16-1.208-0.66-0.151-0.515 0.145-1.057 0.659-1.208 0.515-0.151 1.056 0.145 1.208 0.66 0.073 0.25 0.045 0.513-0.080 0.741s-0.33 0.394-0.58 0.467z"></path>
<path fill="#9fce9e" style="fill: var(--color6, #9fce9e)" d="M13.329 6.682c-1.038 0.305-1.634 1.398-1.33 2.437 0.153 0.519 0.502 0.928 0.944 1.169s0.974 0.314 1.493 0.161c0.503-0.148 0.919-0.483 1.17-0.943s0.308-0.991 0.16-1.494c-0.295-1.007-1.431-1.626-2.437-1.33zM14.156 9.5c-0.515 0.151-1.057-0.144-1.208-0.66s0.145-1.057 0.659-1.208c0.25-0.073 0.513-0.045 0.741 0.080s0.394 0.33 0.467 0.58c0.073 0.25 0.045 0.512-0.079 0.741s-0.33 0.394-0.58 0.468z"></path>
<path fill="#9fce9e" style="fill: var(--color6, #9fce9e)" d="M27.133 18.452l0.698-2.414c0.459-0.17 0.864-0.492 1.117-0.954 0.47-0.862 0.311-3.498 0.274-4.017-0.023-0.336-0.436-0.561-0.731-0.399-0.457 0.25-2.76 1.542-3.23 2.404-0.252 0.462-0.304 0.977-0.198 1.455l-1.653 1.893c-0.014 0.016-0.018 0.037-0.029 0.054-0.015 0.022-0.036 0.039-0.047 0.063l-4.833 10.387c-0.302 0.665-0.036 1.46 0.605 1.81s1.454 0.144 1.852-0.474l6.119-9.68c0.014-0.023 0.017-0.049 0.028-0.073 0.008-0.019 0.024-0.034 0.030-0.054zM20.123 27.726c-0.117 0.18-0.355 0.241-0.544 0.138s-0.267-0.337-0.18-0.528l4.609-9.904 1.95 1.064-5.834 9.23zM24.559 16.606l0.987-1.131c0.155 0.173 0.335 0.328 0.55 0.446s0.443 0.185 0.673 0.221l-0.417 1.442-1.794-0.979zM26.571 15.052c-0.538-0.293-0.736-0.97-0.443-1.508 0.194-0.356 1.217-1.057 2.146-1.613 0.035 1.082-0.001 2.321-0.195 2.677-0.294 0.538-0.97 0.737-1.508 0.443z"></path>
</symbol>
<symbol id="icon-sets_4" viewBox="0 0 24 32">
<path fill="#e58383" style="fill: var(--color7, #e58383)" d="M1.167 30.302l0.458 1.316c0.083 0.255 0.375 0.382 0.875 0.382h19c0.5 0 0.792-0.127 0.875-0.382l0.458-1.316c0.625 0 1.167-0.552 1.167-1.188v-0.594c0-0.637-0.542-1.188-1.167-1.188h-0.583v-12.35c0-0.255-0.167-0.424-0.417-0.424h-1v-8.233c0-0.255-0.167-0.424-0.417-0.424h-2.958v-5.475c0-0.255-0.167-0.424-0.417-0.424h-10.083c-0.25 0-0.417 0.17-0.417 0.424v5.475h-2.958c-0.25 0-0.417 0.17-0.417 0.424v8.276h-1c-0.25 0-0.417 0.17-0.417 0.424v12.35h-0.583c-0.625 0-1.167 0.552-1.167 1.188v0.552c0.042 0.637 0.542 1.188 1.167 1.188zM21.542 31.151h-19.042c-0.042 0-0.125 0-0.167 0l-0.292-0.849h19.917l-0.292 0.849c-0.042 0-0.083 0-0.125 0zM17.917 21.942c-0.25 0-0.417 0.17-0.417 0.424 0 0.891-0.708 1.57-1.542 1.57-0.875 0-1.542-0.721-1.542-1.57 0-0.255-0.167-0.424-0.417-0.424s-0.417 0.17-0.417 0.424c0 0.891-0.708 1.57-1.542 1.57s-1.542-0.721-1.542-1.57c0-0.255-0.167-0.424-0.417-0.424s-0.417 0.17-0.417 0.424c0 0.891-0.708 1.57-1.542 1.57-0.875 0-1.542-0.721-1.542-1.57 0-0.255-0.167-0.424-0.417-0.424s-0.417 0.17-0.417 0.424c0 0.891-0.708 1.57-1.542 1.57-0.875 0-1.542-0.721-1.542-1.57v-2.292c0.417 0.382 0.958 0.594 1.542 0.594 0.833 0 1.542-0.424 1.958-1.061 0.417 0.637 1.167 1.061 1.958 1.061 0.833 0 1.542-0.424 1.958-1.061 0.417 0.637 1.167 1.061 1.958 1.061s1.542-0.424 1.958-1.061c0.417 0.637 1.167 1.061 1.958 1.061 0.833 0 1.542-0.424 1.958-1.061 0.417 0.637 1.167 1.061 1.958 1.061 0.583 0 1.125-0.212 1.542-0.594v2.334c0 0.891-0.708 1.57-1.542 1.57-0.875 0-1.542-0.721-1.542-1.57 0-0.255-0.167-0.467-0.417-0.467zM16.667 0.849v1.782c0 0.721-0.583 1.273-1.25 1.273s-1.25-0.594-1.25-1.273c0-0.255-0.167-0.424-0.417-0.424s-0.417 0.17-0.417 0.424c0 0.721-0.583 1.273-1.25 1.273-0.708 0-1.25-0.594-1.25-1.273 0-0.255-0.167-0.424-0.417-0.424s-0.417 0.17-0.417 0.424c0 0.721-0.583 1.273-1.25 1.273s-1.25-0.594-1.25-1.273v-1.782h9.167zM7.375 4.329c0.333 0.297 0.792 0.467 1.25 0.467 0.708 0 1.292-0.34 1.667-0.891 0.375 0.509 1 0.891 1.667 0.891 0.708 0 1.292-0.34 1.667-0.891 0.375 0.509 1 0.891 1.667 0.891 0.458 0 0.917-0.17 1.25-0.424v1.57h-9.167v-1.613zM20 6.748v3.183c0 0.721-0.583 1.273-1.25 1.273s-1.25-0.594-1.25-1.273c0-0.255-0.167-0.424-0.417-0.424s-0.417 0.17-0.417 0.424c0 0.721-0.583 1.273-1.25 1.273s-1.25-0.594-1.25-1.273c0-0.255-0.167-0.424-0.417-0.424s-0.417 0.17-0.417 0.424c0 0.721-0.583 1.273-1.25 1.273-0.708 0-1.25-0.594-1.25-1.273 0-0.255-0.167-0.424-0.417-0.424s-0.417 0.17-0.417 0.424c0 0.721-0.583 1.273-1.25 1.273s-1.25-0.594-1.25-1.273c0-0.255-0.167-0.424-0.417-0.424s-0.417 0.17-0.417 0.424c0 0.721-0.583 1.273-1.25 1.273s-1.25-0.594-1.25-1.273v-3.141h15.833v-0.042zM4.042 11.586c0.333 0.297 0.792 0.467 1.25 0.467 0.708 0 1.292-0.339 1.667-0.891 0.375 0.509 1 0.891 1.667 0.891 0.708 0 1.292-0.339 1.667-0.891 0.375 0.509 1 0.891 1.667 0.891 0.708 0 1.292-0.339 1.667-0.891 0.375 0.509 1 0.891 1.667 0.891s1.292-0.339 1.667-0.891c0.375 0.509 1 0.891 1.667 0.891 0.458 0 0.917-0.17 1.25-0.424v2.971h-15.833v-3.013zM21.458 15.406v2.801c0 0.891-0.708 1.57-1.542 1.57-0.875 0-1.542-0.721-1.542-1.57 0-0.255-0.167-0.424-0.417-0.424s-0.417 0.17-0.417 0.424c0 0.891-0.708 1.57-1.542 1.57-0.875 0-1.542-0.721-1.542-1.57 0-0.255-0.167-0.424-0.417-0.424s-0.417 0.17-0.417 0.424c0 0.891-0.708 1.57-1.542 1.57s-1.542-0.721-1.542-1.57c0-0.255-0.167-0.424-0.417-0.424s-0.417 0.17-0.417 0.424c0 0.891-0.708 1.57-1.542 1.57-0.875 0-1.542-0.721-1.542-1.57 0-0.255-0.167-0.424-0.417-0.424s-0.417 0.17-0.417 0.424c0 0.891-0.708 1.57-1.542 1.57-0.875 0-1.542-0.721-1.542-1.57v-2.759h18.75v-0.042zM2.583 24.191c0.417 0.382 0.958 0.594 1.542 0.594 0.833 0 1.542-0.424 1.958-1.061 0.417 0.637 1.167 1.061 1.958 1.061 0.833 0 1.542-0.424 1.958-1.061 0.417 0.637 1.167 1.061 1.958 1.061s1.542-0.424 1.958-1.061c0.417 0.637 1.167 1.061 1.958 1.061 0.833 0 1.542-0.424 1.958-1.061 0.417 0.637 1.167 1.061 1.958 1.061 0.583 0 1.125-0.212 1.542-0.594v3.141h-18.75v-3.141zM0.875 28.562c0-0.17 0.167-0.34 0.333-0.34h21.667c0.167 0 0.333 0.17 0.333 0.34v0.552c0 0.17-0.167 0.34-0.333 0.34h-21.667c-0.167 0-0.333-0.17-0.333-0.34v-0.552z"></path>
</symbol>
<symbol id="icon-sets_5" viewBox="0 0 34 32">
<path fill="#57b6bb" style="fill: var(--color8, #57b6bb)" d="M32.756 22.736c-0.468-2.454-2.63-4.207-5.142-4.207h-4.090c-2.513 0-4.675 1.811-5.142 4.207-0.643 0.175-1.11 0.76-1.11 1.461 0 0.409 0.175 0.76 0.409 1.052-0.234 0.292-0.409 0.643-0.409 1.052 0 0.701 0.467 1.285 1.11 1.461 0.467 2.454 2.63 4.207 5.142 4.207h4.090c2.513 0 4.675-1.811 5.142-4.207 0.643-0.175 1.11-0.76 1.11-1.461 0-0.409-0.175-0.76-0.409-1.052 0.234-0.292 0.409-0.643 0.409-1.052 0-0.643-0.468-1.285-1.11-1.461zM23.524 19.581h4.090c1.928 0 3.564 1.286 4.090 3.097h-0.175l-0.117-0.117c-0.292-0.292-0.643-0.409-0.993-0.409h-0.292c-0.351 0-0.701 0.117-0.993 0.409-0.058 0.058-0.175 0.117-0.234 0.117h-0.292c-0.117 0-0.175-0.058-0.234-0.117-0.292-0.292-0.643-0.409-0.993-0.409h-0.292c-0.351 0-0.701 0.117-0.993 0.409-0.058 0.058-0.175 0.117-0.234 0.117h-0.292c-0.117 0-0.175-0.058-0.234-0.117-0.292-0.292-0.643-0.409-0.993-0.409h-0.292c-0.351 0-0.701 0.117-0.993 0.409-0.058 0.058-0.175 0.117-0.234 0.117h-0.292c-0.117 0-0.175-0.058-0.234-0.117-0.292-0.292-0.643-0.409-0.993-0.409h-0.292c-0.351 0-0.701 0.117-0.993 0.409l-0.351 0.117h-0.175c0.467-1.811 2.104-3.097 4.032-3.097zM18.849 23.73h1.227l0.409-0.409c0.058-0.058 0.175-0.117 0.234-0.117h0.292c0.117 0 0.175 0.058 0.234 0.117 0.292 0.292 0.643 0.409 0.993 0.409h0.351c0.351 0 0.701-0.117 0.993-0.409 0.058-0.058 0.175-0.117 0.234-0.117h0.292c0.117 0 0.175 0.058 0.234 0.117 0.292 0.292 0.643 0.409 0.993 0.409h0.292c0.351 0 0.701-0.117 0.993-0.409 0.058-0.058 0.175-0.117 0.234-0.117h0.409c0.117 0 0.175 0.058 0.234 0.117 0.292 0.292 0.643 0.409 0.993 0.409h0.292c0.351 0 0.701-0.117 0.993-0.409 0.058-0.058 0.175-0.117 0.234-0.117h0.292c0.117 0 0.175 0.058 0.234 0.117l0.409 0.409h1.227c0.292 0 0.526 0.234 0.526 0.526s-0.234 0.526-0.526 0.526h-13.323c-0.292 0-0.526-0.234-0.526-0.526s0.234-0.526 0.526-0.526zM27.614 30.976h-4.090c-1.928 0-3.564-1.286-4.090-3.097h12.212c-0.467 1.811-2.104 3.097-4.032 3.097zM32.288 26.827h-13.44c-0.292 0-0.526-0.234-0.526-0.526s0.234-0.526 0.526-0.526h13.498c0.292 0 0.526 0.234 0.526 0.526-0.058 0.292-0.292 0.526-0.584 0.526z"></path>
<path fill="#57b6bb" style="fill: var(--color8, #57b6bb)" d="M17.797 28.018h-2.104v-15.070h6.837v5.078c0.175 0 0.351 0 0.526 0 0.234 0 0.409 0 0.584 0.058v-5.078h1.11c0.292 0 0.584-0.292 0.584-0.584v-5.201c0-0.292-0.292-0.584-0.584-0.584h-6.486c0.526-0.584 0.877-1.402 0.877-2.279 0-1.87-1.519-3.389-3.389-3.389-1.11 0-2.104 0.526-2.688 1.344-0.643-1.169-1.87-1.928-3.272-1.928-2.045 0-3.681 1.636-3.681 3.681 0 0.993 0.409 1.87 1.052 2.571h-6.194c-0.292 0-0.584 0.292-0.584 0.584v5.084c0 0.292 0.292 0.584 0.584 0.584h1.11v15.655c0 0.292 0.292 0.584 0.584 0.584h15.543c-0.175-0.351-0.292-0.701-0.409-1.11zM24.225 7.805v3.973h-8.531v-3.973h8.531zM13.473 4.416c0-1.286 0.993-2.279 2.279-2.279s2.279 0.993 2.279 2.279-0.993 2.279-2.279 2.279h-2.279v-2.279zM9.733 1.553c1.402 0 2.571 1.11 2.571 2.571v2.571h-2.571c-1.402 0-2.571-1.11-2.571-2.571 0.058-1.402 1.169-2.571 2.571-2.571zM10.026 28.018h-6.778v-15.070h6.837v15.070h-0.058zM10.026 11.779h-8.531v-3.973h8.531v3.973zM14.583 28.018h-3.389v-15.070h3.389v15.070zM14.583 11.779h-3.389v-3.973h3.389v3.973z"></path>
</symbol>
<symbol id="icon-sets_6" viewBox="0 0 31 32">
<path fill="#8a8cdc" style="fill: var(--color9, #8a8cdc)" d="M31.399 15.924v-4.032h-6.602c0.151-0.151 0.302-0.302 0.403-0.504h0.907c1.26 0 2.268-1.008 2.268-2.268s-1.008-2.268-2.268-2.268h-7.308v2.52c0 1.008 0.403 1.865 1.058 2.52h-5.594v4.032h1.008v-1.008h0.706l1.008 2.016h0.806v12.6c0 0.554-0.454 1.008-1.008 1.008s-1.008-0.454-1.008-1.008h-1.008c0 1.109 0.907 2.016 2.016 2.016s2.016-0.907 2.016-2.016v-7.056h8.064v7.056c0 1.109 0.907 2.016 2.016 2.016s2.016-0.907 2.016-2.016h-1.008c0 0.554-0.454 1.008-1.008 1.008s-1.008-0.454-1.008-1.008v-12.6h0.806l1.008-2.016h0.706v1.008h1.008zM26.107 7.86c0.706 0 1.26 0.554 1.26 1.26s-0.554 1.26-1.26 1.26h-0.403c0.101-0.302 0.151-0.655 0.151-1.008v-1.512h0.252zM19.807 9.372v-1.512h5.040v1.512c0 1.411-1.109 2.52-2.52 2.52s-2.52-1.109-2.52-2.52zM18.799 21.469v-1.008h8.064v1.008h-8.064zM26.863 19.453h-8.064v-2.52h8.064v2.52zM28.072 15.924h-10.483l-0.504-1.008h11.491l-0.504 1.008zM15.271 13.908v-1.008h15.12v1.008h-15.12z"></path>
<path fill="#8a8cdc" style="fill: var(--color9, #8a8cdc)" d="M12.246 30.037c0 0.302-0.202 0.504-0.504 0.504s-0.504-0.202-0.504-0.504v-8.064h0.504c0.554 0 1.008-0.454 1.008-1.008v-1.008c0-0.554-0.454-1.008-1.008-1.008h-8.064l-0.504-10.584c0-0.857-0.655-1.512-1.512-1.512s-1.512 0.655-1.512 1.512v0.504h1.008v-0.504c0-0.302 0.202-0.504 0.504-0.504s0.504 0.202 0.504 0.504l0.504 11.088v2.52h1.008v8.064c0 0.302-0.202 0.504-0.504 0.504s-0.504-0.202-0.504-0.504v-0.504h-1.008v0.504c0 0.857 0.655 1.512 1.512 1.512s1.512-0.655 1.512-1.512v-8.064h5.544v8.064c0 0.857 0.655 1.512 1.512 1.512s1.512-0.655 1.512-1.512v-0.504h-1.008v0.504zM3.678 19.957h8.064v1.008h-8.064v-1.008z"></path>
<path fill="#8a8cdc" style="fill: var(--color9, #8a8cdc)" d="M20.311 3.123c-0.302 0.302-0.504 0.756-0.504 1.21s0.202 0.907 0.504 1.21l0.655 0.655 0.706-0.706-0.655-0.655c-0.151-0.151-0.202-0.302-0.202-0.504s0.050-0.353 0.202-0.504l0.302-0.302c0.302-0.302 0.504-0.756 0.504-1.21s-0.202-0.907-0.504-1.21l-0.655-0.655-0.706 0.706 0.655 0.655c0.151 0.151 0.202 0.302 0.202 0.504s-0.050 0.353-0.202 0.504l-0.302 0.302z"></path>
<path fill="#8a8cdc" style="fill: var(--color9, #8a8cdc)" d="M23.335 3.123c-0.302 0.302-0.504 0.756-0.504 1.21s0.202 0.907 0.504 1.21l0.655 0.655 0.706-0.706-0.655-0.655c-0.151-0.151-0.202-0.302-0.202-0.504s0.050-0.353 0.202-0.504l0.302-0.302c0.302-0.302 0.504-0.756 0.504-1.21s-0.202-0.907-0.504-1.21l-0.655-0.655-0.706 0.706 0.655 0.655c0.151 0.151 0.202 0.302 0.202 0.504s-0.050 0.353-0.202 0.504l-0.302 0.302z"></path>
</symbol>
<symbol id="icon-tel" viewBox="0 0 21 32">
<path fill="none" stroke="#000" style="stroke: var(--color2, #000)" stroke-linejoin="round" stroke-linecap="round" stroke-miterlimit="10" stroke-width="1.6" d="M16.292 30.372h-11.784c-1.53 0-2.908-1.224-2.908-2.908v-22.956c0-1.53 1.224-2.908 2.908-2.908h11.784c1.53 0 2.908 1.224 2.908 2.908v22.956c0 1.53-1.377 2.908-2.908 2.908z"></path>
<path fill="none" stroke="#000" style="stroke: var(--color2, #000)" stroke-linejoin="round" stroke-linecap="round" stroke-miterlimit="10" stroke-width="1.6" d="M4.355 24.556h12.090"></path>
<path d="M10.171 28.536c0.592 0 1.071-0.48 1.071-1.071s-0.48-1.071-1.071-1.071c-0.592 0-1.071 0.48-1.071 1.071s0.48 1.071 1.071 1.071z"></path>
</symbol>
<symbol id="icon-vk" viewBox="0 0 32 32">
<path d="M15.191 22.712h1.239c0 0 0.374-0.041 0.565-0.247 0.176-0.189 0.17-0.544 0.17-0.544s-0.024-1.663 0.747-1.907c0.761-0.241 1.738 1.607 2.773 2.318 0.783 0.538 1.378 0.42 1.378 0.42l2.768-0.039c0 0 1.448-0.089 0.761-1.228-0.056-0.093-0.4-0.842-2.058-2.382-1.736-1.611-1.503-1.351 0.588-4.138 1.273-1.697 1.783-2.734 1.624-3.177-0.152-0.423-1.088-0.311-1.088-0.311l-3.117 0.019c0 0-0.231-0.032-0.402 0.071-0.168 0.1-0.275 0.335-0.275 0.335s-0.493 1.313-1.151 2.43c-1.388 2.357-1.943 2.481-2.17 2.335-0.528-0.341-0.396-1.37-0.396-2.102 0-2.284 0.346-3.236-0.675-3.483-0.339-0.082-0.588-0.136-1.455-0.145-1.112-0.012-2.054 0.003-2.587 0.265-0.355 0.174-0.628 0.561-0.462 0.583 0.206 0.028 0.673 0.126 0.92 0.463 0.319 0.434 0.308 1.411 0.308 1.411s0.184 2.689-0.429 3.023c-0.42 0.229-0.997-0.239-2.234-2.377-0.634-1.095-1.113-2.306-1.113-2.306s-0.092-0.226-0.257-0.347c-0.2-0.147-0.479-0.193-0.479-0.193l-2.962 0.019c0 0-0.445 0.012-0.608 0.206-0.145 0.172-0.012 0.528-0.012 0.528s2.319 5.425 4.945 8.16c2.408 2.507 5.142 2.342 5.142 2.342z"></path>
</symbol>
</defs>
</svg>
