<svg width="26" height="26" viewBox="0 0 26 26" fill="none" xmlns="http://www.w3.org/2000/svg">
<path fill-rule="evenodd" clip-rule="evenodd" d="M12.343 18.4535H13.3498C13.3498 18.4535 13.6539 18.4202 13.8092 18.2528C13.9521 18.0991 13.9475 17.8105 13.9475 17.8105C13.9475 17.8105 13.9278 16.4596 14.5548 16.2607C15.1729 16.0647 15.9666 17.5663 16.8078 18.1437C17.444 18.5807 17.9274 18.4849 17.9274 18.4849L20.1768 18.4535C20.1768 18.4535 21.3535 18.3811 20.7955 17.4559C20.7498 17.3802 20.4706 16.7715 19.1231 15.5207C17.7127 14.2116 17.9015 14.4234 19.6005 12.1589C20.6352 10.7798 21.0489 9.93789 20.9197 9.57728C20.7964 9.23383 20.0354 9.32461 20.0354 9.32461L17.5028 9.34039C17.5028 9.34039 17.315 9.31478 17.1758 9.39801C17.0397 9.47964 16.9521 9.66989 16.9521 9.66989C16.9521 9.66989 16.5513 10.7371 16.0167 11.6446C14.8889 13.5597 14.438 13.6608 14.2537 13.5419C13.8249 13.2647 13.9319 12.4285 13.9319 11.8344C13.9319 9.97859 14.2134 9.20479 13.3838 9.00448C13.1085 8.93794 12.9059 8.89404 12.2019 8.88695C11.2982 8.87757 10.5333 8.88969 10.1002 9.10189C9.81212 9.24298 9.58985 9.55739 9.72522 9.57546C9.89261 9.59786 10.2717 9.67767 10.4727 9.95138C10.7323 10.3044 10.7231 11.0974 10.7231 11.0974C10.7231 11.0974 10.8722 13.2821 10.3749 13.5535C10.0335 13.7396 9.56516 13.3596 8.55973 11.6222C8.04455 10.7323 7.65559 9.74855 7.65559 9.74855C7.65559 9.74855 7.58059 9.56471 7.44682 9.46638C7.28447 9.34725 7.05763 9.30929 7.05763 9.30929L4.65095 9.32507C4.65095 9.32507 4.28966 9.33513 4.15704 9.49222C4.03905 9.63194 4.14766 9.92097 4.14766 9.92097C4.14766 9.92097 6.03185 14.3291 8.16528 16.5506C10.1215 18.5873 12.343 18.4535 12.343 18.4535Z" fill="black"/>
</svg>
