<!-- Generated by IcoMoon.io -->
<svg version="1.1" xmlns="http://www.w3.org/2000/svg" width="27" height="32" viewBox="0 0 27 32">
<title>case</title>
<path fill="none" stroke="#000" stroke-linejoin="round" stroke-linecap="round" stroke-miterlimit="10" stroke-width="1.2308" d="M18.462 6.897h-17.231v18.965h17.231v-18.965z"></path>
<path fill="none" stroke="#000" stroke-linejoin="round" stroke-linecap="round" stroke-miterlimit="10" stroke-width="1.2308" d="M5.278 9.21v-4.857c0-1.735 1.272-3.122 2.775-3.122h3.585c1.503 0 2.775 1.388 2.775 3.122v4.857"></path>
<path fill="#000" d="M27.077 24c0 4.418-3.582 8-8 8s-8-3.582-8-8c0-4.418 3.582-8 8-8s8 3.582 8 8z"></path>
<path fill="#fff" d="M20.347 28.308h-1.022v-2.080h-3.902v-0.849l3.52-5.28h1.403v5.231h1.157v0.898h-1.157v2.080zM19.325 25.329v-4.283l-2.88 4.283h2.88z"></path>
</svg>
