<!-- Generated by IcoMoon.io -->
<svg version="1.1" xmlns="http://www.w3.org/2000/svg" width="37" height="32" viewBox="0 0 37 32">
<title>footer_heart</title>
<path fill="#4e9dd3" d="M26.973 12.633c-0.558-2.915-3.136-4.998-6.133-4.998h-4.879c-2.997 0-5.576 2.152-6.133 4.998-0.767 0.208-1.324 0.902-1.324 1.735 0 0.486 0.209 0.902 0.488 1.249-0.279 0.347-0.488 0.764-0.488 1.249 0 0.833 0.558 1.527 1.324 1.735 0.558 2.915 3.136 4.998 6.133 4.998h4.879c2.997 0 5.576-2.152 6.133-4.998 0.767-0.208 1.324-0.902 1.324-1.735 0-0.486-0.209-0.902-0.488-1.249 0.279-0.347 0.488-0.764 0.488-1.249 0-0.833-0.558-1.527-1.324-1.735zM15.961 8.816h4.879c2.3 0 4.252 1.527 4.879 3.679h-0.209l-0.139-0.139c-0.348-0.347-0.767-0.486-1.185-0.486h-0.348c-0.418 0-0.836 0.139-1.185 0.486-0.070 0.069-0.209 0.139-0.279 0.139h-0.348c-0.139 0-0.209-0.069-0.279-0.139-0.348-0.347-0.767-0.486-1.185-0.486h-0.349c-0.418 0-0.836 0.139-1.185 0.486-0.070 0.069-0.209 0.139-0.279 0.139h-0.348c-0.139 0-0.209-0.069-0.279-0.139-0.348-0.347-0.767-0.486-1.185-0.486h-0.348c-0.418 0-0.836 0.139-1.185 0.486-0.070 0.069-0.209 0.139-0.279 0.139h-0.348c-0.139 0-0.209-0.069-0.279-0.139-0.348-0.347-0.767-0.486-1.185-0.486h-0.349c-0.418 0-0.836 0.139-1.185 0.486l-0.139 0.139h-0.488c0.558-2.082 2.509-3.679 4.809-3.679zM10.385 13.744h1.464l0.488-0.486c0.070-0.069 0.209-0.069 0.348-0.069h0.348c0.139 0 0.209 0.069 0.279 0.139 0.348 0.347 0.767 0.486 1.185 0.486h0.348c0.418 0 0.836-0.139 1.185-0.486 0.070-0.069 0.209-0.139 0.279-0.139h0.418c0.139 0 0.209 0.069 0.279 0.139 0.349 0.347 0.767 0.486 1.185 0.486h0.348c0.418 0 0.836-0.139 1.185-0.486 0.070-0.069 0.209-0.139 0.279-0.139h0.348c0.139 0 0.209 0.069 0.279 0.139 0.348 0.347 0.767 0.486 1.185 0.486h0.488c0.418 0 0.836-0.139 1.185-0.486 0.070-0.139 0.209-0.139 0.279-0.139h0.349c0.139 0 0.209 0.069 0.279 0.139l0.488 0.486h1.603c0.348 0 0.627 0.278 0.627 0.625s-0.279 0.625-0.627 0.625h-16.1c-0.348 0-0.627-0.278-0.627-0.625s0.279-0.694 0.627-0.694zM20.84 22.421h-4.879c-2.3 0-4.252-1.527-4.879-3.679h14.567c-0.558 2.082-2.509 3.679-4.809 3.679zM26.485 17.492h-16.1c-0.348 0-0.627-0.278-0.627-0.625s0.279-0.625 0.627-0.625h16.1c0.348 0 0.627 0.278 0.627 0.625s-0.348 0.625-0.627 0.625z"></path>
<path fill="#4e9dd3" d="M8.502 1.388c4.461 0 8.712 4.165 8.921 4.373 0.279 0.278 0.627 0.347 0.906 0.347s0.627-0.139 0.906-0.347c0.070 0 2.161-2.082 5.018-3.332 1.464-0.625 2.788-0.972 4.042-0.972 1.812 0 3.415 0.694 4.809 2.082 1.742 1.666 2.439 3.679 2.23 5.97-0.767 8.469-13.8 18.464-17.006 20.824-1.394-1.041-4.6-3.471-7.876-6.594-5.506-5.484-8.642-10.343-9.061-14.299-0.139-2.291 0.558-4.234 2.23-5.97 1.533-1.527 3.276-2.082 4.879-2.082zM8.502 0c-2.23 0-4.182 0.833-5.855 2.499-2.021 2.082-2.858 4.373-2.648 7.080 0.418 4.304 3.624 9.371 9.548 15.063 3.415 3.263 6.761 5.831 8.015 6.733l0.836 0.625 0.836-0.625c3.903-2.846 16.727-12.842 17.564-21.796 0.279-2.777-0.627-5.137-2.648-7.080-1.673-1.666-3.624-2.499-5.855-2.499-1.464 0-2.997 0.347-4.6 1.111-1.673 0.764-3.345 1.805-4.948 3.262h-0.070l-0.348 0.347c-0.627-0.694-5.018-4.72-9.827-4.72z"></path>
</svg>
