<!-- Generated by IcoMoon.io -->
<svg version="1.1" xmlns="http://www.w3.org/2000/svg" width="46" height="32" viewBox="0 0 46 32">
<title>footer_cook</title>
<path fill="#4e9dd3" d="M45.254 16.195l-6.054-7.189c-0.151-0.151-0.378-0.303-0.605-0.303h-8.324v12.108h-30.27v5.297c0 0.454 0.303 0.757 0.757 0.757h4.389c-0.076 0.227-0.076 0.53-0.076 0.757 0 2.119 1.665 3.784 3.784 3.784s3.784-1.665 3.784-3.784c0-0.227 0-0.53-0.076-0.757h20.811c-0.076 0.227-0.076 0.53-0.076 0.757 0 2.119 1.665 3.784 3.784 3.784s3.784-1.665 3.784-3.784c0-0.227 0-0.53-0.076-0.757h3.859c0.454 0 0.757-0.303 0.757-0.757v-9.459c0-0.151-0.076-0.303-0.151-0.454zM43.060 15.892h-5.222v-2.649h2.951l2.27 2.649zM8.854 29.892c-1.287 0-2.27-0.984-2.27-2.27 0-0.378 0.076-0.757 0.303-1.135 0.378-0.681 1.135-1.135 1.968-1.135 0.227 0 0.378 0 0.605 0.076 0.378 0.076 0.757 0.303 0.984 0.605 0.151 0.151 0.227 0.303 0.378 0.454 0.227 0.378 0.303 0.757 0.303 1.135 0 1.287-1.059 2.27-2.27 2.27zM37.081 29.892c-1.286 0-2.27-0.984-2.27-2.27 0-0.378 0.076-0.757 0.303-1.135 0.378-0.681 1.135-1.135 1.968-1.135 0.227 0 0.378 0 0.605 0.076 0.378 0.076 0.757 0.303 0.984 0.605 0.151 0.151 0.227 0.303 0.378 0.454 0.227 0.378 0.303 0.757 0.303 1.135 0 1.287-0.984 2.27-2.27 2.27zM43.892 25.351h-3.784c0-0.076-0.076-0.076-0.076-0.151-0.076-0.076-0.151-0.151-0.227-0.227s-0.076-0.076-0.151-0.151-0.151-0.151-0.227-0.151c-0.076-0.076-0.076-0.076-0.151-0.076-0.076-0.076-0.151-0.076-0.227-0.151-0.076 0-0.076-0.076-0.151-0.076-0.076-0.076-0.151-0.076-0.227-0.151-0.076 0-0.151-0.076-0.151-0.076-0.076 0-0.151-0.076-0.303-0.076-0.076 0-0.151 0-0.151-0.076-0.076 0-0.227-0.076-0.303-0.076s-0.076 0-0.151 0c-0.151 0-0.303 0-0.454 0s-0.303 0-0.454 0c-0.076 0-0.076 0-0.151 0s-0.227 0-0.303 0.076c-0.076 0-0.151 0-0.151 0.076-0.076 0-0.151 0.076-0.303 0.076-0.076 0-0.151 0.076-0.151 0.076-0.076 0.076-0.151 0.076-0.227 0.151-0.076 0-0.076 0.076-0.151 0.076-0.076 0.076-0.151 0.076-0.227 0.151-0.076 0-0.076 0.076-0.151 0.076-0.076 0.076-0.151 0.151-0.227 0.151-0.076 0.076-0.076 0.076-0.151 0.151s-0.151 0.151-0.227 0.227c0 0.076-0.076 0.076-0.076 0.151h-22.324c0-0.076-0.076-0.076-0.076-0.151-0.076-0.076-0.151-0.151-0.227-0.227s-0.076-0.076-0.151-0.151-0.151-0.151-0.227-0.151c-0.076-0.076-0.076-0.076-0.151-0.076-0.076-0.076-0.151-0.076-0.227-0.151-0.076 0-0.076-0.076-0.151-0.076-0.076-0.076-0.151-0.076-0.227-0.151-0.076 0-0.151-0.076-0.151-0.076-0.076 0-0.151-0.076-0.303-0.076-0.076 0-0.151 0-0.151-0.076-0.076 0-0.227-0.076-0.303-0.076s-0.076 0-0.151 0c-0.151 0-0.303 0-0.454 0s-0.303 0-0.454 0c-0.076 0-0.076 0-0.151 0s-0.227 0-0.303 0.076c-0.076 0-0.151 0-0.151 0.076-0.076 0-0.151 0.076-0.227 0.076s-0.151 0.076-0.227 0.076c-0.076 0-0.151 0.076-0.227 0.076s-0.151 0.076-0.227 0.076c-0.076 0.076-0.151 0.076-0.227 0.151s-0.151 0.076-0.151 0.151-0.076 0.076-0.151 0.151-0.151 0.076-0.151 0.151c-0.227 0.076-0.227 0.151-0.303 0.227s-0.076 0.151-0.151 0.151h-4.314v-3.027h29.514c0.454 0 0.757-0.303 0.757-0.757v-11.351h6.433l1.286 1.514h-2.422c-0.454 0-0.757 0.303-0.757 0.757v4.162c0 0.454 0.303 0.757 0.757 0.757h6.811v7.946z"></path>
<path fill="#4e9dd3" d="M25.881 6.13c-0.681-3.557-3.784-6.13-7.492-6.13h-5.903c-3.632 0-6.735 2.573-7.492 6.13-0.908 0.303-1.589 1.135-1.589 2.119 0 0.605 0.227 1.135 0.605 1.514-0.378 0.378-0.605 0.908-0.605 1.514 0 0.984 0.681 1.892 1.589 2.119 0.681 3.557 3.784 6.13 7.492 6.13h5.903c3.632 0 6.735-2.573 7.492-6.13 0.908-0.303 1.589-1.135 1.589-2.119 0-0.605-0.227-1.135-0.605-1.514 0.378-0.378 0.605-0.908 0.605-1.514 0.076-0.984-0.605-1.816-1.589-2.119zM12.486 1.514h5.903c2.8 0 5.146 1.892 5.903 4.541h-0.303l-0.151-0.151c-0.303-0.454-0.832-0.605-1.362-0.605h-0.454c-0.53 0-1.059 0.227-1.438 0.605-0.076 0.076-0.227 0.151-0.378 0.151h-0.454c-0.151 0-0.303-0.076-0.378-0.151-0.378-0.454-0.908-0.605-1.438-0.605h-0.454c-0.53 0-1.059 0.227-1.438 0.605-0.076 0.076-0.227 0.151-0.378 0.151h-0.454c-0.151 0-0.303-0.076-0.378-0.151-0.303-0.454-0.832-0.605-1.362-0.605h-0.454c-0.53 0-1.059 0.227-1.438 0.605-0.076 0.076-0.227 0.151-0.378 0.151h-0.454c-0.151 0-0.303-0.076-0.378-0.151-0.378-0.454-0.908-0.605-1.438-0.605h-0.454c-0.53 0-1.059 0.227-1.438 0.605l-0.151 0.076h-0.227c0.681-2.573 3.103-4.465 5.827-4.465zM5.676 7.492h1.816l0.605-0.605c0.151-0.076 0.227-0.151 0.378-0.151h0.454c0.151 0 0.303 0.076 0.378 0.151 0.378 0.378 0.908 0.605 1.438 0.605h0.454c0.53 0 1.059-0.227 1.438-0.605 0.076-0.076 0.227-0.151 0.378-0.151h0.454c0.151 0 0.303 0.076 0.378 0.151 0.378 0.378 0.908 0.605 1.438 0.605h0.454c0.53 0 1.059-0.227 1.438-0.605 0.076-0.076 0.227-0.151 0.303-0.151h0.454c0.151 0 0.303 0.076 0.378 0.151 0.378 0.378 0.908 0.605 1.438 0.605h0.454c0.53 0 1.059-0.227 1.438-0.605 0.076-0.076 0.227-0.151 0.378-0.151h0.454c0.151 0 0.303 0.076 0.378 0.151l0.605 0.605h1.816c0.378 0 0.757 0.303 0.757 0.757s-0.303 0.757-0.757 0.757h-19.6c-0.378 0-0.757-0.303-0.757-0.757s0.378-0.757 0.757-0.757zM18.465 18.011h-5.903c-2.8 0-5.146-1.892-5.903-4.541h17.708c-0.757 2.724-3.103 4.541-5.903 4.541zM25.276 12.033h-19.6c-0.378 0-0.757-0.303-0.757-0.757s0.303-0.757 0.757-0.757h19.524c0.378 0 0.757 0.303 0.757 0.757s-0.303 0.757-0.681 0.757z"></path>
</svg>
