<!-- Generated by IcoMoon.io -->
<svg version="1.1" xmlns="http://www.w3.org/2000/svg" width="25" height="32" viewBox="0 0 25 32">
<title>footer_flour</title>
<path fill="#4e9dd3" d="M18.651 6.115c-0.068-0.111-0.164-0.204-0.279-0.268s-0.245-0.098-0.377-0.098c-0.132 0-0.262 0.034-0.377 0.098s-0.211 0.156-0.279 0.268c-1.139 1.92-2.172 3.898-3.095 5.926-1.514-4.047-3.391-7.955-5.609-11.677l-0.001-0.002c-0.031-0.049-0.067-0.094-0.108-0.135-0.010-0.010-0.020-0.020-0.031-0.029-0.042-0.039-0.088-0.073-0.137-0.102l-0.002-0.001c-0.050-0.027-0.103-0.049-0.159-0.064-0.014-0.004-0.027-0.008-0.042-0.011-0.115-0.030-0.236-0.030-0.351 0-0.014 0.003-0.028 0.007-0.042 0.011-0.055 0.015-0.107 0.036-0.157 0.063l-0.003 0.001c-0.050 0.029-0.096 0.063-0.137 0.102-0.011 0.009-0.021 0.019-0.031 0.029-0.041 0.041-0.078 0.086-0.108 0.135l-0.001 0.002c-0.299 0.491-7.324 12.115-7.324 19.76 0 8.755 4.122 11.875 7.98 11.875 1.017 0 2.021-0.224 2.938-0.655s1.724-1.059 2.361-1.837c0.514 0.767 1.214 1.396 2.038 1.831s1.744 0.663 2.679 0.662c3.2 0 6.62-2.568 6.62-9.777 0-6.243-5.721-15.707-5.964-16.107zM7.98 30.499c-0.362-0.113-1.667-2.165-1.667-10.374 0-4.659 0.957-11.072 1.667-15.185 0.71 4.112 1.667 10.524 1.667 15.185 0 8.21-1.304 10.261-1.667 10.374zM1.528 20.125c0-4.531 2.763-10.793 4.844-14.868-0.705 4.153-1.586 10.262-1.586 14.868 0 3.609 0.247 7.678 1.192 9.993-2.789-1.136-4.45-4.75-4.45-9.993zM9.983 30.118c0.945-2.315 1.192-6.384 1.192-9.993 0-4.606-0.881-10.714-1.586-14.867 1.533 2.937 2.813 5.994 3.826 9.141l0 0.002c0.312 1.011 0.565 2.038 0.756 3.077 0.003 0.017 0.006 0.035 0.009 0.051 0.037 0.211 0.070 0.418 0.099 0.621 0.004 0.029 0.009 0.057 0.013 0.086 0.026 0.19 0.048 0.376 0.066 0.559 0.004 0.036 0.009 0.072 0.012 0.108 0.017 0.176 0.029 0.347 0.039 0.516 0.002 0.038 0.006 0.076 0.008 0.113 0.010 0.202 0.016 0.4 0.016 0.593 0 0.198-0.002 0.393-0.007 0.586-0.071 2.897-0.672 5.315-1.75 7.021-0.009 0.017-0.017 0.034-0.024 0.051-0.617 1.035-1.552 1.852-2.67 2.335v0zM17.995 30.5c-1.58 0-2.88-0.804-3.78-2.33 0.931-1.631 1.565-3.846 1.71-6.751 0.003-0.066 0.006-0.132 0.009-0.199 0.015-0.356 0.025-0.719 0.025-1.095 0-0.221-0.007-0.448-0.019-0.681-0.005-0.105-0.015-0.212-0.023-0.318-0.009-0.124-0.017-0.247-0.029-0.374-0.014-0.146-0.032-0.294-0.050-0.441-0.011-0.086-0.020-0.172-0.032-0.26-0.025-0.182-0.053-0.366-0.084-0.55-0.009-0.053-0.017-0.105-0.026-0.158-0.038-0.221-0.080-0.444-0.126-0.669l-0.010-0.049c-0.162-0.79-0.366-1.595-0.605-2.405 0.895-2.121 1.909-4.191 3.038-6.201 1.508 2.691 5.092 9.573 5.092 14.202 0 5.106-1.951 8.277-5.092 8.277z"></path>
</svg>
