<!-- Generated by IcoMoon.io -->
<svg version="1.1" xmlns="http://www.w3.org/2000/svg" width="32" height="32" viewBox="0 0 32 32">
<title>inst</title>
<path d="M22.552 0.262h-13.794c-4.685 0-8.496 3.811-8.496 8.496v13.794c0 4.685 3.811 8.496 8.496 8.496h13.794c4.685 0 8.496-3.811 8.496-8.496v-13.794c0-4.685-3.811-8.496-8.496-8.496zM28.317 22.552c0 3.179-2.586 5.764-5.765 5.764h-13.795c-3.178 0-5.764-2.586-5.764-5.764v-13.794c0-3.178 2.586-5.764 5.764-5.764h13.794c3.179 0 5.765 2.586 5.765 5.764v13.794h0z"></path>
<path d="M15.655 7.722c-4.374 0-7.933 3.559-7.933 7.933s3.559 7.933 7.933 7.933c4.374 0 7.933-3.558 7.933-7.933s-3.559-7.933-7.933-7.933zM15.655 20.855c-2.868 0-5.201-2.333-5.201-5.201s2.333-5.201 5.201-5.201 5.201 2.333 5.201 5.201c0 2.868-2.333 5.201-5.201 5.201z"></path>
<path d="M23.921 5.406c-0.526 0-1.043 0.213-1.415 0.586-0.374 0.371-0.588 0.889-0.588 1.417 0 0.526 0.215 1.043 0.588 1.417 0.371 0.371 0.889 0.586 1.415 0.586 0.528 0 1.044-0.215 1.417-0.586 0.373-0.373 0.586-0.89 0.586-1.417 0-0.528-0.213-1.045-0.586-1.417-0.371-0.373-0.889-0.586-1.417-0.586z"></path>
</svg>
