<!-- Generated by IcoMoon.io -->
<svg version="1.1" xmlns="http://www.w3.org/2000/svg" width="32" height="32" viewBox="0 0 32 32">
<title>percent</title>
<path fill="#e7426a" d="M32 16c0 8.837-7.163 16-16 16s-16-7.163-16-16c0-8.837 7.163-16 16-16s16 7.163 16 16z"></path>
<path fill="#fff" d="M14.826 14.787c-0.6 0.613-1.373 0.92-2.32 0.92s-1.72-0.307-2.32-0.92c-0.587-0.627-0.88-1.407-0.88-2.34 0-0.947 0.3-1.733 0.9-2.36 0.6-0.64 1.367-0.96 2.3-0.96 0.947 0 1.72 0.32 2.32 0.96 0.613 0.627 0.92 1.413 0.92 2.36 0 0.933-0.307 1.713-0.92 2.34zM12.326 22.667h-1.080l8.52-13.34h1.1l-8.54 13.34zM21.786 21.987c-0.6 0.613-1.373 0.92-2.32 0.92s-1.72-0.307-2.32-0.92c-0.587-0.627-0.88-1.407-0.88-2.34 0-0.947 0.3-1.733 0.9-2.36 0.6-0.64 1.367-0.96 2.3-0.96 0.947 0 1.72 0.32 2.32 0.96 0.6 0.627 0.9 1.413 0.9 2.36 0 0.933-0.3 1.713-0.9 2.34zM11.066 14.067c0.373 0.427 0.853 0.64 1.44 0.64s1.073-0.213 1.46-0.64c0.387-0.44 0.58-0.98 0.58-1.62 0-0.667-0.193-1.213-0.58-1.64-0.373-0.44-0.86-0.66-1.46-0.66-0.587 0-1.067 0.22-1.44 0.66-0.373 0.427-0.56 0.973-0.56 1.64 0 0.64 0.187 1.18 0.56 1.62zM18.006 21.267c0.387 0.427 0.873 0.64 1.46 0.64s1.073-0.213 1.46-0.64c0.387-0.44 0.58-0.98 0.58-1.62 0-0.667-0.193-1.213-0.58-1.64-0.373-0.44-0.86-0.66-1.46-0.66s-1.087 0.22-1.46 0.66c-0.373 0.427-0.56 0.973-0.56 1.64 0 0.64 0.187 1.18 0.56 1.62z"></path>
</svg>
