<!-- Generated by IcoMoon.io -->
<svg version="1.1" xmlns="http://www.w3.org/2000/svg" width="40" height="32" viewBox="0 0 40 32">
<title>sets_2</title>
<path fill="#e67285" d="M25.13 3.639c-0.344-1.777-1.948-3.129-3.781-3.129h-3.017c-1.833 0-3.437 1.352-3.781 3.129-0.496 0.155-0.84 0.579-0.84 1.12 0 0.309 0.115 0.579 0.306 0.772-0.191 0.193-0.306 0.464-0.306 0.772 0 0.541 0.344 0.966 0.802 1.12 0.344 1.815 1.948 3.129 3.781 3.129h3.017c1.833 0 3.437-1.352 3.781-3.129 0.458-0.154 0.802-0.579 0.802-1.12 0-0.309-0.115-0.579-0.306-0.772 0.191-0.193 0.306-0.463 0.306-0.772 0.038-0.541-0.306-0.966-0.764-1.12zM18.332 1.283h3.017c1.413 0 2.635 0.966 2.979 2.318h-0.153l-0.076-0.077c-0.191-0.193-0.42-0.309-0.726-0.309h-0.229c-0.267 0-0.535 0.116-0.726 0.309-0.038 0.039-0.115 0.077-0.191 0.077h-0.229c-0.076 0-0.153-0.039-0.191-0.077-0.191-0.193-0.42-0.309-0.726-0.309h-0.229c-0.267 0-0.535 0.116-0.726 0.309-0.038 0.039-0.115 0.077-0.191 0.077h-0.229c-0.076 0-0.153-0.039-0.191-0.077-0.191-0.193-0.42-0.309-0.726-0.309h-0.229c-0.267 0-0.535 0.116-0.726 0.309-0.038 0.039-0.115 0.077-0.191 0.077h-0.229c-0.076 0-0.153-0.039-0.191-0.077-0.191-0.193-0.42-0.309-0.726-0.309h-0.229c-0.267 0-0.535 0.116-0.726 0.309l-0.076 0.077h-0.153c0.382-1.352 1.604-2.318 3.017-2.318zM14.857 4.373h0.917l0.306-0.309c0.076-0.039 0.153-0.077 0.191-0.077h0.229c0.076 0 0.153 0.039 0.191 0.077 0.191 0.193 0.458 0.309 0.726 0.309h0.229c0.267 0 0.535-0.116 0.726-0.309 0.076-0.039 0.153-0.077 0.191-0.077h0.229c0.076 0 0.153 0.039 0.191 0.077 0.191 0.193 0.458 0.309 0.726 0.309h0.229c0.267 0 0.535-0.116 0.726-0.309 0.076-0.039 0.153-0.077 0.191-0.077h0.229c0.076 0 0.153 0.039 0.191 0.077 0.191 0.193 0.458 0.309 0.726 0.309h0.229c0.267 0 0.535-0.116 0.726-0.309 0.076-0.039 0.153-0.077 0.191-0.077h0.229c0.076 0 0.153 0.039 0.191 0.077l0.306 0.309h0.917c0.229 0 0.382 0.154 0.382 0.386s-0.153 0.386-0.382 0.386h-9.93c-0.229 0-0.382-0.154-0.382-0.386s0.191-0.386 0.382-0.386zM21.349 9.781h-3.017c-1.413 0-2.635-0.966-2.979-2.318h9.013c-0.382 1.352-1.604 2.318-3.017 2.318zM24.786 6.691h-9.93c-0.229 0-0.382-0.154-0.382-0.386s0.153-0.386 0.382-0.386h9.93c0.229 0 0.382 0.154 0.382 0.386s-0.153 0.386-0.382 0.386z"></path>
<path fill="#e67285" d="M11.725 24.729c-0.344-1.815-1.948-3.129-3.781-3.129h-3.017c-1.833 0-3.437 1.352-3.781 3.129-0.496 0.154-0.84 0.579-0.84 1.12 0 0.309 0.115 0.579 0.306 0.773-0.191 0.193-0.306 0.463-0.306 0.773 0 0.541 0.344 0.966 0.802 1.12 0.344 1.815 1.948 3.129 3.781 3.129h3.017c1.833 0 3.437-1.352 3.781-3.129 0.458-0.154 0.802-0.579 0.802-1.12 0-0.309-0.115-0.579-0.306-0.773 0.191-0.193 0.306-0.463 0.306-0.773 0.038-0.541-0.306-0.966-0.764-1.12zM4.927 22.373h3.017c1.413 0 2.635 0.966 2.979 2.318h-0.153l-0.076-0.077c-0.191-0.193-0.458-0.309-0.726-0.309h-0.229c-0.267 0-0.535 0.116-0.726 0.309-0.038 0.039-0.115 0.077-0.191 0.077h-0.229c-0.076 0-0.153-0.039-0.191-0.077-0.191-0.193-0.458-0.309-0.726-0.309h-0.229c-0.267 0-0.535 0.116-0.726 0.309-0.038 0.039-0.115 0.077-0.191 0.077h-0.229c-0.076 0-0.153-0.039-0.191-0.077-0.191-0.193-0.458-0.309-0.726-0.309h-0.229c-0.267 0-0.535 0.116-0.726 0.309-0.038 0.039-0.115 0.077-0.191 0.077h-0.229c-0.076 0-0.153-0.039-0.191-0.077-0.191-0.193-0.458-0.309-0.726-0.309h-0.229c-0.267 0-0.535 0.116-0.726 0.309l-0.076 0.077h-0.153c0.382-1.352 1.604-2.318 3.017-2.318zM1.452 25.463h0.917l0.306-0.309c0.038-0.039 0.115-0.077 0.191-0.077h0.229c0.076 0 0.153 0.039 0.191 0.077 0.191 0.193 0.458 0.309 0.726 0.309h0.229c0.267 0 0.535-0.116 0.726-0.309 0.038-0.039 0.115-0.077 0.191-0.077h0.229c0.076 0 0.153 0.039 0.191 0.077 0.191 0.193 0.458 0.309 0.726 0.309h0.229c0.267 0 0.535-0.116 0.726-0.309 0.038-0.039 0.115-0.077 0.191-0.077h0.229c0.076 0 0.153 0.039 0.191 0.077 0.191 0.193 0.458 0.309 0.726 0.309h0.229c0.267 0 0.535-0.116 0.726-0.309 0.038-0.039 0.115-0.077 0.191-0.077h0.229c0.076 0 0.153 0.039 0.191 0.077l0.306 0.309h0.917c0.229 0 0.382 0.154 0.382 0.386s-0.153 0.386-0.382 0.386h-9.93c-0.229 0-0.382-0.155-0.382-0.386s0.153-0.386 0.382-0.386zM7.906 30.87h-3.017c-1.413 0-2.635-0.966-2.979-2.318h9.013c-0.382 1.352-1.604 2.318-3.017 2.318zM11.382 27.78h-9.93c-0.229 0-0.382-0.154-0.382-0.386s0.153-0.386 0.382-0.386h9.93c0.229 0 0.382 0.154 0.382 0.386 0 0.193-0.153 0.386-0.382 0.386z"></path>
<path fill="#e67285" d="M25.245 24.729c-0.344-1.815-1.948-3.129-3.781-3.129h-3.017c-1.833 0-3.437 1.352-3.781 3.129-0.458 0.154-0.802 0.579-0.802 1.12 0 0.309 0.115 0.579 0.306 0.773-0.191 0.193-0.306 0.463-0.306 0.773 0 0.541 0.344 0.966 0.802 1.12 0.344 1.815 1.948 3.129 3.781 3.129h3.017c1.833 0 3.437-1.352 3.781-3.129 0.458-0.154 0.802-0.579 0.802-1.12 0-0.309-0.115-0.579-0.306-0.773 0.191-0.193 0.306-0.463 0.306-0.773 0-0.541-0.344-0.966-0.802-1.12zM18.447 22.373h3.017c1.413 0 2.635 0.966 2.979 2.318h-0.153l-0.076-0.077c-0.191-0.193-0.458-0.309-0.726-0.309h-0.229c-0.267 0-0.535 0.116-0.726 0.309-0.038 0.039-0.115 0.077-0.191 0.077h-0.229c-0.076 0-0.153-0.039-0.191-0.077-0.191-0.193-0.458-0.309-0.726-0.309h-0.229c-0.267 0-0.535 0.116-0.726 0.309-0.038 0.039-0.115 0.077-0.191 0.077h-0.229c-0.076 0-0.153-0.039-0.191-0.077-0.191-0.193-0.458-0.309-0.726-0.309h-0.229c-0.267 0-0.535 0.116-0.726 0.309-0.038 0.039-0.115 0.077-0.191 0.077h-0.229c-0.076 0-0.153-0.039-0.191-0.077-0.191-0.193-0.458-0.309-0.726-0.309h-0.229c-0.267 0-0.535 0.116-0.726 0.309l-0.076 0.077h-0.153c0.382-1.352 1.604-2.318 3.017-2.318zM14.971 25.463h0.917l0.306-0.309c0.038-0.039 0.115-0.077 0.191-0.077h0.229c0.076 0 0.153 0.039 0.191 0.077 0.191 0.193 0.458 0.309 0.726 0.309h0.229c0.267 0 0.535-0.116 0.726-0.309 0.038-0.039 0.115-0.077 0.191-0.077h0.229c0.076 0 0.153 0.039 0.191 0.077 0.191 0.193 0.458 0.309 0.726 0.309h0.229c0.267 0 0.535-0.116 0.726-0.309 0.038-0.039 0.115-0.077 0.191-0.077h0.229c0.076 0 0.153 0.039 0.191 0.077 0.191 0.193 0.458 0.309 0.726 0.309h0.229c0.267 0 0.535-0.116 0.726-0.309 0.038-0.039 0.115-0.077 0.191-0.077h0.229c0.076 0 0.153 0.039 0.191 0.077l0.306 0.309h0.917c0.229 0 0.382 0.154 0.382 0.386s-0.153 0.386-0.382 0.386h-9.93c-0.229 0-0.382-0.155-0.382-0.386s0.191-0.386 0.382-0.386zM21.464 30.87h-3.017c-1.413 0-2.635-0.966-2.979-2.318h9.013c-0.382 1.352-1.604 2.318-3.017 2.318zM24.901 27.78h-9.93c-0.229 0-0.382-0.154-0.382-0.386s0.153-0.386 0.382-0.386h9.93c0.229 0 0.382 0.154 0.382 0.386 0 0.193-0.153 0.386-0.382 0.386z"></path>
<path fill="#e67285" d="M38.764 24.729c-0.344-1.815-1.948-3.129-3.781-3.129h-3.017c-1.833 0-3.437 1.352-3.781 3.129-0.458 0.154-0.802 0.579-0.802 1.12 0 0.309 0.115 0.579 0.306 0.773-0.191 0.193-0.306 0.463-0.306 0.773 0 0.541 0.344 0.966 0.802 1.12 0.344 1.815 1.948 3.129 3.781 3.129h3.017c1.833 0 3.437-1.352 3.781-3.129 0.458-0.154 0.802-0.579 0.802-1.12 0-0.309-0.115-0.579-0.306-0.773 0.191-0.193 0.306-0.463 0.306-0.773 0.038-0.541-0.306-0.966-0.802-1.12zM31.966 22.373h3.017c1.413 0 2.635 0.966 2.979 2.318h-0.153l-0.076-0.077c-0.191-0.193-0.458-0.309-0.726-0.309h-0.229c-0.267 0-0.535 0.116-0.726 0.309-0.038 0.039-0.115 0.077-0.191 0.077h-0.229c-0.076 0-0.153-0.039-0.191-0.077-0.191-0.193-0.458-0.309-0.726-0.309h-0.229c-0.267 0-0.535 0.116-0.726 0.309-0.038 0.039-0.115 0.077-0.191 0.077h-0.229c-0.076 0-0.153-0.039-0.191-0.077-0.191-0.193-0.458-0.309-0.726-0.309h-0.229c-0.267 0-0.535 0.116-0.726 0.309-0.038 0.039-0.115 0.077-0.191 0.077h-0.229c-0.076 0-0.153-0.039-0.191-0.077-0.191-0.193-0.458-0.309-0.726-0.309h-0.229c-0.267 0-0.535 0.116-0.726 0.309l-0.076 0.077h-0.153c0.382-1.352 1.604-2.318 3.017-2.318zM28.529 25.463h0.917l0.306-0.309c0.038-0.039 0.115-0.077 0.191-0.077h0.229c0.076 0 0.153 0.039 0.191 0.077 0.191 0.193 0.458 0.309 0.726 0.309h0.229c0.267 0 0.535-0.116 0.726-0.309 0.038-0.039 0.115-0.077 0.191-0.077h0.229c0.076 0 0.153 0.039 0.191 0.077 0.191 0.193 0.458 0.309 0.726 0.309h0.229c0.267 0 0.535-0.116 0.726-0.309 0.038-0.039 0.115-0.077 0.191-0.077h0.229c0.076 0 0.153 0.039 0.191 0.077 0.191 0.193 0.458 0.309 0.726 0.309h0.229c0.267 0 0.535-0.116 0.726-0.309 0.038-0.039 0.115-0.077 0.191-0.077h0.229c0.076 0 0.153 0.039 0.191 0.077l0.306 0.309h0.917c0.229 0 0.382 0.154 0.382 0.386s-0.153 0.386-0.382 0.386h-9.93c-0.229 0-0.382-0.155-0.382-0.386s0.153-0.386 0.382-0.386zM34.983 30.87h-3.017c-1.413 0-2.635-0.966-2.979-2.318h9.013c-0.382 1.352-1.604 2.318-3.017 2.318zM38.459 27.78h-9.93c-0.229 0-0.382-0.154-0.382-0.386s0.153-0.386 0.382-0.386h9.93c0.229 0 0.382 0.154 0.382 0.386 0 0.193-0.191 0.386-0.382 0.386z"></path>
<path fill="#e67285" d="M18.485 14.184c-0.344-1.815-1.948-3.129-3.781-3.129h-3.017c-1.833 0-3.437 1.352-3.781 3.129-0.458 0.155-0.802 0.579-0.802 1.12 0 0.309 0.115 0.579 0.306 0.773-0.191 0.193-0.306 0.463-0.306 0.773 0 0.541 0.344 0.966 0.802 1.12 0.344 1.815 1.948 3.129 3.781 3.129h3.017c1.833 0 3.437-1.352 3.781-3.129 0.458-0.154 0.802-0.579 0.802-1.12 0-0.309-0.115-0.579-0.306-0.773 0.191-0.193 0.306-0.464 0.306-0.773 0-0.541-0.344-1.004-0.802-1.12zM11.687 11.789h3.017c1.413 0 2.635 0.966 2.979 2.318h-0.153l-0.076-0.077c-0.191-0.193-0.458-0.309-0.726-0.309h-0.229c-0.267 0-0.535 0.116-0.726 0.309-0.038 0.039-0.115 0.077-0.191 0.077h-0.229c-0.076 0-0.153-0.039-0.191-0.077-0.191-0.193-0.458-0.309-0.726-0.309h-0.229c-0.267 0-0.535 0.116-0.726 0.309-0.038 0.039-0.115 0.077-0.191 0.077h-0.229c-0.076 0-0.153-0.039-0.191-0.077-0.191-0.193-0.458-0.309-0.726-0.309h-0.229c-0.267 0-0.535 0.116-0.726 0.309-0.038 0.039-0.115 0.077-0.191 0.077h-0.229c-0.076 0-0.153-0.039-0.191-0.077-0.191-0.193-0.458-0.309-0.726-0.309h-0.229c-0.267 0-0.535 0.116-0.726 0.309l-0.076 0.077h-0.153c0.382-1.352 1.604-2.318 3.017-2.318zM8.212 14.879h0.917l0.306-0.309c0.038-0.039 0.115-0.077 0.191-0.077h0.229c0.076 0 0.153 0.039 0.191 0.077 0.191 0.193 0.458 0.309 0.726 0.309h0.229c0.267 0 0.535-0.116 0.726-0.309 0.038-0.039 0.115-0.077 0.191-0.077h0.229c0.076 0 0.153 0.039 0.191 0.077 0.191 0.193 0.458 0.309 0.726 0.309h0.229c0.267 0 0.535-0.116 0.726-0.309 0.038-0.039 0.115-0.077 0.191-0.077h0.229c0.076 0 0.153 0.039 0.191 0.077 0.191 0.193 0.458 0.309 0.726 0.309h0.229c0.267 0 0.535-0.116 0.726-0.309 0.038-0.039 0.115-0.077 0.191-0.077h0.229c0.076 0 0.153 0.039 0.191 0.077l0.306 0.309h0.917c0.229 0 0.382 0.155 0.382 0.386s-0.153 0.386-0.382 0.386h-9.93c-0.229 0-0.382-0.155-0.382-0.386s0.191-0.386 0.382-0.386zM14.704 20.287h-3.017c-1.413 0-2.635-0.966-2.979-2.318h9.013c-0.42 1.352-1.604 2.318-3.017 2.318zM18.141 17.197h-9.93c-0.229 0-0.382-0.154-0.382-0.386s0.153-0.386 0.382-0.386h9.93c0.229 0 0.382 0.154 0.382 0.386s-0.153 0.386-0.382 0.386z"></path>
<path fill="#e67285" d="M32.004 14.184c-0.344-1.815-1.948-3.129-3.781-3.129h-3.017c-1.833 0-3.437 1.352-3.781 3.129-0.458 0.155-0.802 0.579-0.802 1.12 0 0.309 0.115 0.579 0.306 0.773-0.191 0.193-0.306 0.463-0.306 0.773 0 0.541 0.344 0.966 0.802 1.12 0.344 1.815 1.948 3.129 3.781 3.129h3.017c1.833 0 3.437-1.352 3.781-3.129 0.458-0.154 0.802-0.579 0.802-1.12 0-0.309-0.115-0.579-0.306-0.773 0.191-0.193 0.306-0.464 0.306-0.773 0-0.541-0.344-1.004-0.802-1.12zM25.206 11.789h3.017c1.413 0 2.635 0.966 2.979 2.318h-0.153l-0.076-0.077c-0.191-0.193-0.458-0.309-0.726-0.309h-0.229c-0.267 0-0.535 0.116-0.726 0.309-0.038 0.039-0.115 0.077-0.191 0.077h-0.229c-0.076 0-0.153-0.039-0.191-0.077-0.191-0.193-0.458-0.309-0.726-0.309h-0.229c-0.267 0-0.535 0.116-0.726 0.309-0.038 0.039-0.115 0.077-0.191 0.077h-0.229c-0.076 0-0.153-0.039-0.191-0.077-0.191-0.193-0.458-0.309-0.726-0.309h-0.229c-0.267 0-0.535 0.116-0.726 0.309-0.038 0.039-0.115 0.077-0.191 0.077h-0.229c-0.076 0-0.153-0.039-0.191-0.077-0.191-0.193-0.458-0.309-0.726-0.309h-0.229c-0.267 0-0.535 0.116-0.726 0.309l-0.076 0.077h-0.153c0.382-1.352 1.604-2.318 3.017-2.318zM21.731 14.879h0.917l0.306-0.309c0.038-0.039 0.115-0.077 0.191-0.077h0.229c0.076 0 0.153 0.039 0.191 0.077 0.191 0.193 0.458 0.309 0.726 0.309h0.229c0.267 0 0.535-0.116 0.726-0.309 0.038-0.039 0.115-0.077 0.191-0.077h0.229c0.076 0 0.153 0.039 0.191 0.077 0.191 0.193 0.458 0.309 0.726 0.309h0.229c0.267 0 0.535-0.116 0.726-0.309 0.038-0.039 0.115-0.077 0.191-0.077h0.229c0.076 0 0.153 0.039 0.191 0.077 0.191 0.193 0.458 0.309 0.726 0.309h0.229c0.267 0 0.535-0.116 0.726-0.309 0.038-0.039 0.115-0.077 0.191-0.077h0.229c0.076 0 0.153 0.039 0.191 0.077l0.306 0.309h0.917c0.229 0 0.382 0.155 0.382 0.386s-0.153 0.386-0.382 0.386h-9.93c-0.229 0-0.382-0.155-0.382-0.386s0.191-0.386 0.382-0.386zM28.224 20.287h-3.017c-1.413 0-2.635-0.966-2.979-2.318h9.013c-0.382 1.352-1.604 2.318-3.017 2.318zM31.661 17.197h-9.93c-0.229 0-0.382-0.154-0.382-0.386s0.153-0.386 0.382-0.386h9.93c0.229 0 0.382 0.154 0.382 0.386s-0.153 0.386-0.382 0.386z"></path>
</svg>
