<!-- Generated by IcoMoon.io -->
<svg version="1.1" xmlns="http://www.w3.org/2000/svg" width="24" height="32" viewBox="0 0 24 32">
<title>sets_4</title>
<path fill="#e58383" d="M1.167 30.302l0.458 1.316c0.083 0.255 0.375 0.382 0.875 0.382h19c0.5 0 0.792-0.127 0.875-0.382l0.458-1.316c0.625 0 1.167-0.552 1.167-1.188v-0.594c0-0.637-0.542-1.188-1.167-1.188h-0.583v-12.35c0-0.255-0.167-0.424-0.417-0.424h-1v-8.233c0-0.255-0.167-0.424-0.417-0.424h-2.958v-5.475c0-0.255-0.167-0.424-0.417-0.424h-10.083c-0.25 0-0.417 0.17-0.417 0.424v5.475h-2.958c-0.25 0-0.417 0.17-0.417 0.424v8.276h-1c-0.25 0-0.417 0.17-0.417 0.424v12.35h-0.583c-0.625 0-1.167 0.552-1.167 1.188v0.552c0.042 0.637 0.542 1.188 1.167 1.188zM21.542 31.151h-19.042c-0.042 0-0.125 0-0.167 0l-0.292-0.849h19.917l-0.292 0.849c-0.042 0-0.083 0-0.125 0zM17.917 21.942c-0.25 0-0.417 0.17-0.417 0.424 0 0.891-0.708 1.57-1.542 1.57-0.875 0-1.542-0.721-1.542-1.57 0-0.255-0.167-0.424-0.417-0.424s-0.417 0.17-0.417 0.424c0 0.891-0.708 1.57-1.542 1.57s-1.542-0.721-1.542-1.57c0-0.255-0.167-0.424-0.417-0.424s-0.417 0.17-0.417 0.424c0 0.891-0.708 1.57-1.542 1.57-0.875 0-1.542-0.721-1.542-1.57 0-0.255-0.167-0.424-0.417-0.424s-0.417 0.17-0.417 0.424c0 0.891-0.708 1.57-1.542 1.57-0.875 0-1.542-0.721-1.542-1.57v-2.292c0.417 0.382 0.958 0.594 1.542 0.594 0.833 0 1.542-0.424 1.958-1.061 0.417 0.637 1.167 1.061 1.958 1.061 0.833 0 1.542-0.424 1.958-1.061 0.417 0.637 1.167 1.061 1.958 1.061s1.542-0.424 1.958-1.061c0.417 0.637 1.167 1.061 1.958 1.061 0.833 0 1.542-0.424 1.958-1.061 0.417 0.637 1.167 1.061 1.958 1.061 0.583 0 1.125-0.212 1.542-0.594v2.334c0 0.891-0.708 1.57-1.542 1.57-0.875 0-1.542-0.721-1.542-1.57 0-0.255-0.167-0.467-0.417-0.467zM16.667 0.849v1.782c0 0.721-0.583 1.273-1.25 1.273s-1.25-0.594-1.25-1.273c0-0.255-0.167-0.424-0.417-0.424s-0.417 0.17-0.417 0.424c0 0.721-0.583 1.273-1.25 1.273-0.708 0-1.25-0.594-1.25-1.273 0-0.255-0.167-0.424-0.417-0.424s-0.417 0.17-0.417 0.424c0 0.721-0.583 1.273-1.25 1.273s-1.25-0.594-1.25-1.273v-1.782h9.167zM7.375 4.329c0.333 0.297 0.792 0.467 1.25 0.467 0.708 0 1.292-0.34 1.667-0.891 0.375 0.509 1 0.891 1.667 0.891 0.708 0 1.292-0.34 1.667-0.891 0.375 0.509 1 0.891 1.667 0.891 0.458 0 0.917-0.17 1.25-0.424v1.57h-9.167v-1.613zM20 6.748v3.183c0 0.721-0.583 1.273-1.25 1.273s-1.25-0.594-1.25-1.273c0-0.255-0.167-0.424-0.417-0.424s-0.417 0.17-0.417 0.424c0 0.721-0.583 1.273-1.25 1.273s-1.25-0.594-1.25-1.273c0-0.255-0.167-0.424-0.417-0.424s-0.417 0.17-0.417 0.424c0 0.721-0.583 1.273-1.25 1.273-0.708 0-1.25-0.594-1.25-1.273 0-0.255-0.167-0.424-0.417-0.424s-0.417 0.17-0.417 0.424c0 0.721-0.583 1.273-1.25 1.273s-1.25-0.594-1.25-1.273c0-0.255-0.167-0.424-0.417-0.424s-0.417 0.17-0.417 0.424c0 0.721-0.583 1.273-1.25 1.273s-1.25-0.594-1.25-1.273v-3.141h15.833v-0.042zM4.042 11.586c0.333 0.297 0.792 0.467 1.25 0.467 0.708 0 1.292-0.339 1.667-0.891 0.375 0.509 1 0.891 1.667 0.891 0.708 0 1.292-0.339 1.667-0.891 0.375 0.509 1 0.891 1.667 0.891 0.708 0 1.292-0.339 1.667-0.891 0.375 0.509 1 0.891 1.667 0.891s1.292-0.339 1.667-0.891c0.375 0.509 1 0.891 1.667 0.891 0.458 0 0.917-0.17 1.25-0.424v2.971h-15.833v-3.013zM21.458 15.406v2.801c0 0.891-0.708 1.57-1.542 1.57-0.875 0-1.542-0.721-1.542-1.57 0-0.255-0.167-0.424-0.417-0.424s-0.417 0.17-0.417 0.424c0 0.891-0.708 1.57-1.542 1.57-0.875 0-1.542-0.721-1.542-1.57 0-0.255-0.167-0.424-0.417-0.424s-0.417 0.17-0.417 0.424c0 0.891-0.708 1.57-1.542 1.57s-1.542-0.721-1.542-1.57c0-0.255-0.167-0.424-0.417-0.424s-0.417 0.17-0.417 0.424c0 0.891-0.708 1.57-1.542 1.57-0.875 0-1.542-0.721-1.542-1.57 0-0.255-0.167-0.424-0.417-0.424s-0.417 0.17-0.417 0.424c0 0.891-0.708 1.57-1.542 1.57-0.875 0-1.542-0.721-1.542-1.57v-2.759h18.75v-0.042zM2.583 24.191c0.417 0.382 0.958 0.594 1.542 0.594 0.833 0 1.542-0.424 1.958-1.061 0.417 0.637 1.167 1.061 1.958 1.061 0.833 0 1.542-0.424 1.958-1.061 0.417 0.637 1.167 1.061 1.958 1.061s1.542-0.424 1.958-1.061c0.417 0.637 1.167 1.061 1.958 1.061 0.833 0 1.542-0.424 1.958-1.061 0.417 0.637 1.167 1.061 1.958 1.061 0.583 0 1.125-0.212 1.542-0.594v3.141h-18.75v-3.141zM0.875 28.562c0-0.17 0.167-0.34 0.333-0.34h21.667c0.167 0 0.333 0.17 0.333 0.34v0.552c0 0.17-0.167 0.34-0.333 0.34h-21.667c-0.167 0-0.333-0.17-0.333-0.34v-0.552z"></path>
</svg>
