<!-- Generated by IcoMoon.io -->
<svg version="1.1" xmlns="http://www.w3.org/2000/svg" width="32" height="32" viewBox="0 0 32 32">
<title>sets_3</title>
<path fill="#9fce9e" d="M24.956 11.639c0.283-2.177-0.667-4.162-2.538-5.309-0.172-0.107-0.351-0.209-0.532-0.308-2.878-1.571-6.314-1.881-9.427-0.85-3.155 1.044-5.662 3.29-7.061 6.324-2.483 5.392-0.562 11.84 4.468 14.998 0.212 0.134 0.427 0.26 0.643 0.378 0.156 0.085 0.312 0.165 0.467 0.241 1.972 0.966 4.237 0.695 5.911-0.707 1.759-1.474 2.452-3.779 1.809-6.014 0 0 0 0-0-0.001-0.28-0.97-0.231-1.813 0.146-2.503 0.376-0.688 1.057-1.184 2.025-1.474 2.225-0.667 3.792-2.496 4.088-4.774zM17.974 17.413c-0.499 0.915-0.578 2.040-0.228 3.252 0.533 1.853-0.040 3.762-1.494 4.981-1.39 1.165-3.199 1.381-4.84 0.577-0.34-0.166-0.684-0.357-1.018-0.567-4.61-2.895-6.371-8.804-4.096-13.746 1.282-2.782 3.581-4.842 6.472-5.799 2.854-0.945 6.004-0.66 8.642 0.78 0.164 0.090 0.326 0.181 0.486 0.281 1.532 0.938 2.308 2.561 2.076 4.339-0.245 1.886-1.544 3.401-3.39 3.954-1.21 0.361-2.112 1.035-2.61 1.948z"></path>
<path fill="#9fce9e" d="M21.073 7.513c-0.95-0.519-2.145-0.167-2.664 0.783s-0.167 2.145 0.783 2.663c0.95 0.519 2.145 0.168 2.663-0.783s0.168-2.145-0.782-2.664zM19.666 10.091c-0.471-0.257-0.646-0.85-0.388-1.321s0.85-0.645 1.321-0.388c0.471 0.257 0.645 0.85 0.388 1.321s-0.849 0.645-1.32 0.388z"></path>
<path fill="#9fce9e" d="M13.204 21.932c-0.95-0.519-2.145-0.168-2.664 0.782s-0.167 2.145 0.783 2.664c0.95 0.519 2.145 0.167 2.663-0.783s0.168-2.145-0.783-2.663zM11.797 24.51c-0.471-0.257-0.645-0.85-0.388-1.321s0.85-0.645 1.321-0.388c0.471 0.257 0.645 0.849 0.388 1.32s-0.85 0.646-1.321 0.388z"></path>
<path fill="#9fce9e" d="M10.711 13.451c0.519-0.95 0.168-2.145-0.782-2.664s-2.145-0.167-2.664 0.783c-0.519 0.95-0.167 2.145 0.783 2.663s2.145 0.168 2.663-0.783zM8.522 13.365c-0.471-0.257-0.646-0.849-0.388-1.321s0.85-0.645 1.321-0.388c0.471 0.257 0.645 0.85 0.388 1.321s-0.849 0.645-1.32 0.388z"></path>
<path fill="#9fce9e" d="M7.764 16.877c-1.038 0.306-1.635 1.399-1.33 2.437 0.148 0.503 0.483 0.919 0.943 1.17s0.991 0.308 1.494 0.16c0.503-0.148 0.918-0.482 1.17-0.943s0.309-0.991 0.16-1.494c-0.305-1.038-1.398-1.635-2.437-1.33zM8.592 19.695c-0.5 0.147-1.062-0.16-1.208-0.66-0.151-0.515 0.145-1.057 0.659-1.208 0.515-0.151 1.056 0.145 1.208 0.66 0.073 0.25 0.045 0.513-0.080 0.741s-0.33 0.394-0.58 0.467z"></path>
<path fill="#9fce9e" d="M13.329 6.682c-1.038 0.305-1.634 1.398-1.33 2.437 0.153 0.519 0.502 0.928 0.944 1.169s0.974 0.314 1.493 0.161c0.503-0.148 0.919-0.483 1.17-0.943s0.308-0.991 0.16-1.494c-0.295-1.007-1.431-1.626-2.437-1.33zM14.156 9.5c-0.515 0.151-1.057-0.144-1.208-0.66s0.145-1.057 0.659-1.208c0.25-0.073 0.513-0.045 0.741 0.080s0.394 0.33 0.467 0.58c0.073 0.25 0.045 0.512-0.079 0.741s-0.33 0.394-0.58 0.468z"></path>
<path fill="#9fce9e" d="M27.133 18.452l0.698-2.414c0.459-0.17 0.864-0.492 1.117-0.954 0.47-0.862 0.311-3.498 0.274-4.017-0.023-0.336-0.436-0.561-0.731-0.399-0.457 0.25-2.76 1.542-3.23 2.404-0.252 0.462-0.304 0.977-0.198 1.455l-1.653 1.893c-0.014 0.016-0.018 0.037-0.029 0.054-0.015 0.022-0.036 0.039-0.047 0.063l-4.833 10.387c-0.302 0.665-0.036 1.46 0.605 1.81s1.454 0.144 1.852-0.474l6.119-9.68c0.014-0.023 0.017-0.049 0.028-0.073 0.008-0.019 0.024-0.034 0.030-0.054zM20.123 27.726c-0.117 0.18-0.355 0.241-0.544 0.138s-0.267-0.337-0.18-0.528l4.609-9.904 1.95 1.064-5.834 9.23zM24.559 16.606l0.987-1.131c0.155 0.173 0.335 0.328 0.55 0.446s0.443 0.185 0.673 0.221l-0.417 1.442-1.794-0.979zM26.571 15.052c-0.538-0.293-0.736-0.97-0.443-1.508 0.194-0.356 1.217-1.057 2.146-1.613 0.035 1.082-0.001 2.321-0.195 2.677-0.294 0.538-0.97 0.737-1.508 0.443z"></path>
</svg>
