<!-- Generated by IcoMoon.io -->
<svg version="1.1" xmlns="http://www.w3.org/2000/svg" width="31" height="32" viewBox="0 0 31 32">
<title>sets_6</title>
<path fill="#8a8cdc" d="M31.399 15.924v-4.032h-6.602c0.151-0.151 0.302-0.302 0.403-0.504h0.907c1.26 0 2.268-1.008 2.268-2.268s-1.008-2.268-2.268-2.268h-7.308v2.52c0 1.008 0.403 1.865 1.058 2.52h-5.594v4.032h1.008v-1.008h0.706l1.008 2.016h0.806v12.6c0 0.554-0.454 1.008-1.008 1.008s-1.008-0.454-1.008-1.008h-1.008c0 1.109 0.907 2.016 2.016 2.016s2.016-0.907 2.016-2.016v-7.056h8.064v7.056c0 1.109 0.907 2.016 2.016 2.016s2.016-0.907 2.016-2.016h-1.008c0 0.554-0.454 1.008-1.008 1.008s-1.008-0.454-1.008-1.008v-12.6h0.806l1.008-2.016h0.706v1.008h1.008zM26.107 7.86c0.706 0 1.26 0.554 1.26 1.26s-0.554 1.26-1.26 1.26h-0.403c0.101-0.302 0.151-0.655 0.151-1.008v-1.512h0.252zM19.807 9.372v-1.512h5.040v1.512c0 1.411-1.109 2.52-2.52 2.52s-2.52-1.109-2.52-2.52zM18.799 21.469v-1.008h8.064v1.008h-8.064zM26.863 19.453h-8.064v-2.52h8.064v2.52zM28.072 15.924h-10.483l-0.504-1.008h11.491l-0.504 1.008zM15.271 13.908v-1.008h15.12v1.008h-15.12z"></path>
<path fill="#8a8cdc" d="M12.246 30.037c0 0.302-0.202 0.504-0.504 0.504s-0.504-0.202-0.504-0.504v-8.064h0.504c0.554 0 1.008-0.454 1.008-1.008v-1.008c0-0.554-0.454-1.008-1.008-1.008h-8.064l-0.504-10.584c0-0.857-0.655-1.512-1.512-1.512s-1.512 0.655-1.512 1.512v0.504h1.008v-0.504c0-0.302 0.202-0.504 0.504-0.504s0.504 0.202 0.504 0.504l0.504 11.088v2.52h1.008v8.064c0 0.302-0.202 0.504-0.504 0.504s-0.504-0.202-0.504-0.504v-0.504h-1.008v0.504c0 0.857 0.655 1.512 1.512 1.512s1.512-0.655 1.512-1.512v-8.064h5.544v8.064c0 0.857 0.655 1.512 1.512 1.512s1.512-0.655 1.512-1.512v-0.504h-1.008v0.504zM3.678 19.957h8.064v1.008h-8.064v-1.008z"></path>
<path fill="#8a8cdc" d="M20.311 3.123c-0.302 0.302-0.504 0.756-0.504 1.21s0.202 0.907 0.504 1.21l0.655 0.655 0.706-0.706-0.655-0.655c-0.151-0.151-0.202-0.302-0.202-0.504s0.050-0.353 0.202-0.504l0.302-0.302c0.302-0.302 0.504-0.756 0.504-1.21s-0.202-0.907-0.504-1.21l-0.655-0.655-0.706 0.706 0.655 0.655c0.151 0.151 0.202 0.302 0.202 0.504s-0.050 0.353-0.202 0.504l-0.302 0.302z"></path>
<path fill="#8a8cdc" d="M23.335 3.123c-0.302 0.302-0.504 0.756-0.504 1.21s0.202 0.907 0.504 1.21l0.655 0.655 0.706-0.706-0.655-0.655c-0.151-0.151-0.202-0.302-0.202-0.504s0.050-0.353 0.202-0.504l0.302-0.302c0.302-0.302 0.504-0.756 0.504-1.21s-0.202-0.907-0.504-1.21l-0.655-0.655-0.706 0.706 0.655 0.655c0.151 0.151 0.202 0.302 0.202 0.504s-0.050 0.353-0.202 0.504l-0.302 0.302z"></path>
</svg>
