<!-- Generated by IcoMoon.io -->
<svg version="1.1" xmlns="http://www.w3.org/2000/svg" width="34" height="32" viewBox="0 0 34 32">
<title>sets_5</title>
<path fill="#57b6bb" d="M32.756 22.736c-0.468-2.454-2.63-4.207-5.142-4.207h-4.090c-2.513 0-4.675 1.811-5.142 4.207-0.643 0.175-1.11 0.76-1.11 1.461 0 0.409 0.175 0.76 0.409 1.052-0.234 0.292-0.409 0.643-0.409 1.052 0 0.701 0.467 1.285 1.11 1.461 0.467 2.454 2.63 4.207 5.142 4.207h4.090c2.513 0 4.675-1.811 5.142-4.207 0.643-0.175 1.11-0.76 1.11-1.461 0-0.409-0.175-0.76-0.409-1.052 0.234-0.292 0.409-0.643 0.409-1.052 0-0.643-0.468-1.285-1.11-1.461zM23.524 19.581h4.090c1.928 0 3.564 1.286 4.090 3.097h-0.175l-0.117-0.117c-0.292-0.292-0.643-0.409-0.993-0.409h-0.292c-0.351 0-0.701 0.117-0.993 0.409-0.058 0.058-0.175 0.117-0.234 0.117h-0.292c-0.117 0-0.175-0.058-0.234-0.117-0.292-0.292-0.643-0.409-0.993-0.409h-0.292c-0.351 0-0.701 0.117-0.993 0.409-0.058 0.058-0.175 0.117-0.234 0.117h-0.292c-0.117 0-0.175-0.058-0.234-0.117-0.292-0.292-0.643-0.409-0.993-0.409h-0.292c-0.351 0-0.701 0.117-0.993 0.409-0.058 0.058-0.175 0.117-0.234 0.117h-0.292c-0.117 0-0.175-0.058-0.234-0.117-0.292-0.292-0.643-0.409-0.993-0.409h-0.292c-0.351 0-0.701 0.117-0.993 0.409l-0.351 0.117h-0.175c0.467-1.811 2.104-3.097 4.032-3.097zM18.849 23.73h1.227l0.409-0.409c0.058-0.058 0.175-0.117 0.234-0.117h0.292c0.117 0 0.175 0.058 0.234 0.117 0.292 0.292 0.643 0.409 0.993 0.409h0.351c0.351 0 0.701-0.117 0.993-0.409 0.058-0.058 0.175-0.117 0.234-0.117h0.292c0.117 0 0.175 0.058 0.234 0.117 0.292 0.292 0.643 0.409 0.993 0.409h0.292c0.351 0 0.701-0.117 0.993-0.409 0.058-0.058 0.175-0.117 0.234-0.117h0.409c0.117 0 0.175 0.058 0.234 0.117 0.292 0.292 0.643 0.409 0.993 0.409h0.292c0.351 0 0.701-0.117 0.993-0.409 0.058-0.058 0.175-0.117 0.234-0.117h0.292c0.117 0 0.175 0.058 0.234 0.117l0.409 0.409h1.227c0.292 0 0.526 0.234 0.526 0.526s-0.234 0.526-0.526 0.526h-13.323c-0.292 0-0.526-0.234-0.526-0.526s0.234-0.526 0.526-0.526zM27.614 30.976h-4.090c-1.928 0-3.564-1.286-4.090-3.097h12.212c-0.467 1.811-2.104 3.097-4.032 3.097zM32.288 26.827h-13.44c-0.292 0-0.526-0.234-0.526-0.526s0.234-0.526 0.526-0.526h13.498c0.292 0 0.526 0.234 0.526 0.526-0.058 0.292-0.292 0.526-0.584 0.526z"></path>
<path fill="#57b6bb" d="M17.797 28.018h-2.104v-15.070h6.837v5.078c0.175 0 0.351 0 0.526 0 0.234 0 0.409 0 0.584 0.058v-5.078h1.11c0.292 0 0.584-0.292 0.584-0.584v-5.201c0-0.292-0.292-0.584-0.584-0.584h-6.486c0.526-0.584 0.877-1.402 0.877-2.279 0-1.87-1.519-3.389-3.389-3.389-1.11 0-2.104 0.526-2.688 1.344-0.643-1.169-1.87-1.928-3.272-1.928-2.045 0-3.681 1.636-3.681 3.681 0 0.993 0.409 1.87 1.052 2.571h-6.194c-0.292 0-0.584 0.292-0.584 0.584v5.084c0 0.292 0.292 0.584 0.584 0.584h1.11v15.655c0 0.292 0.292 0.584 0.584 0.584h15.543c-0.175-0.351-0.292-0.701-0.409-1.11zM24.225 7.805v3.973h-8.531v-3.973h8.531zM13.473 4.416c0-1.286 0.993-2.279 2.279-2.279s2.279 0.993 2.279 2.279-0.993 2.279-2.279 2.279h-2.279v-2.279zM9.733 1.553c1.402 0 2.571 1.11 2.571 2.571v2.571h-2.571c-1.402 0-2.571-1.11-2.571-2.571 0.058-1.402 1.169-2.571 2.571-2.571zM10.026 28.018h-6.778v-15.070h6.837v15.070h-0.058zM10.026 11.779h-8.531v-3.973h8.531v3.973zM14.583 28.018h-3.389v-15.070h3.389v15.070zM14.583 11.779h-3.389v-3.973h3.389v3.973z"></path>
</svg>
