<!-- Generated by IcoMoon.io -->
<svg version="1.1" xmlns="http://www.w3.org/2000/svg" width="32" height="32" viewBox="0 0 32 32">
<title>sets_1</title>
<path fill="#f4976e" d="M30.7 1.3v29.399h-29.399v-29.399h29.399zM30.7 0.485h-29.399c-0.449 0-0.816 0.367-0.816 0.816v29.399c0 0.449 0.367 0.816 0.816 0.816h29.399c0.449 0 0.816-0.367 0.816-0.816v-29.399c0-0.449-0.367-0.816-0.816-0.816z"></path>
<path fill="#f4976e" d="M16.428 9.496c0-0.326-0.122-0.612-0.326-0.816 0.204-0.204 0.326-0.489 0.326-0.816 0-0.571-0.367-1.019-0.856-1.183-0.408-1.916-2.080-3.303-4.078-3.303h-3.221c-1.998 0-3.67 1.427-4.037 3.303-0.489 0.163-0.856 0.612-0.856 1.183 0 0.326 0.122 0.612 0.326 0.816-0.204 0.204-0.326 0.489-0.326 0.816 0 0.571 0.367 1.019 0.856 1.182 0.367 1.916 2.080 3.303 4.037 3.303h3.221c1.957 0 3.67-1.427 4.037-3.303 0.53-0.163 0.897-0.652 0.897-1.182zM8.273 4.195h3.221c1.509 0 2.814 1.019 3.181 2.447h-0.163l-0.082-0.082c-0.204-0.204-0.489-0.326-0.775-0.326h-0.245c-0.285 0-0.571 0.122-0.775 0.326-0.041 0.041-0.122 0.082-0.204 0.082h-0.245c-0.082 0-0.163-0.041-0.204-0.082-0.204-0.204-0.489-0.326-0.775-0.326h-0.245c-0.285 0-0.571 0.122-0.775 0.326-0.041 0.041-0.122 0.082-0.204 0.082h-0.245c-0.082 0-0.163-0.041-0.204-0.082-0.204-0.204-0.489-0.326-0.775-0.326h-0.245c-0.285 0-0.571 0.122-0.775 0.326-0.041 0.041-0.122 0.082-0.204 0.082h-0.245c-0.082 0-0.163-0.041-0.204-0.082-0.204-0.204-0.489-0.326-0.775-0.326h-0.245c-0.285 0-0.571 0.122-0.775 0.326l-0.082 0.082h-0.163c0.408-1.427 1.713-2.447 3.221-2.447zM4.603 7.457h0.979l0.326-0.326c0.041-0.041 0.122-0.082 0.204-0.082h0.245c0.082 0 0.163 0.041 0.204 0.082 0.204 0.204 0.489 0.326 0.775 0.326h0.245c0.285 0 0.571-0.122 0.775-0.326 0.041-0.041 0.122-0.082 0.204-0.082h0.245c0.082 0 0.163 0.041 0.204 0.082 0.204 0.204 0.489 0.326 0.775 0.326h0.245c0.285 0 0.571-0.122 0.775-0.326 0.041-0.041 0.122-0.082 0.204-0.082h0.245c0.082 0 0.163 0.041 0.204 0.082 0.204 0.204 0.489 0.326 0.775 0.326h0.245c0.285 0 0.571-0.122 0.775-0.326 0.041-0.041 0.122-0.082 0.204-0.082h0.245c0.082 0 0.163 0.041 0.204 0.082l0.326 0.326h0.979c0.245 0 0.408 0.163 0.408 0.408s-0.163 0.408-0.408 0.408h-10.602c-0.245 0-0.408-0.163-0.408-0.408s0.163-0.408 0.408-0.408zM4.603 9.089h10.602c0.245 0 0.408 0.163 0.408 0.408s-0.163 0.408-0.408 0.408h-10.602c-0.245 0-0.408-0.163-0.408-0.408s0.163-0.408 0.408-0.408zM11.494 13.166h-3.221c-1.509 0-2.813-1.019-3.181-2.447h9.623c-0.408 1.427-1.713 2.447-3.221 2.447z"></path>
<path fill="#f4976e" d="M27.764 21.362c-0.367-1.916-2.080-3.303-4.037-3.303h-3.221c-1.957 0-3.67 1.427-4.037 3.303-0.489 0.163-0.856 0.612-0.856 1.183 0 0.326 0.122 0.612 0.326 0.816-0.204 0.204-0.326 0.489-0.326 0.816 0 0.571 0.367 1.019 0.856 1.183 0.367 1.916 2.080 3.303 4.037 3.303h3.221c1.957 0 3.67-1.427 4.037-3.303 0.489-0.163 0.856-0.612 0.856-1.183 0-0.326-0.122-0.612-0.326-0.816 0.204-0.204 0.326-0.489 0.326-0.816 0.041-0.571-0.326-1.019-0.856-1.183zM20.506 18.875h3.221c1.509 0 2.814 1.019 3.18 2.447h-0.163l-0.082-0.082c-0.204-0.204-0.489-0.326-0.775-0.326h-0.245c-0.285 0-0.571 0.122-0.775 0.326-0.041 0.041-0.122 0.082-0.204 0.082h-0.245c-0.082 0-0.163-0.041-0.204-0.082-0.204-0.204-0.489-0.326-0.775-0.326h-0.245c-0.285 0-0.571 0.122-0.775 0.326-0.041 0.041-0.122 0.082-0.204 0.082h-0.245c-0.082 0-0.163-0.041-0.204-0.082-0.204-0.204-0.489-0.326-0.775-0.326h-0.245c-0.285 0-0.571 0.122-0.775 0.326-0.041 0.041-0.122 0.082-0.204 0.082h-0.245c-0.082 0-0.163-0.041-0.204-0.082-0.204-0.204-0.489-0.326-0.775-0.326h-0.245c-0.285 0-0.571 0.122-0.775 0.326l-0.082 0.082h-0.163c0.408-1.427 1.713-2.447 3.221-2.447zM16.836 22.137h0.979l0.326-0.326c0.041-0.041 0.122-0.082 0.204-0.082h0.245c0.082 0 0.163 0.041 0.204 0.082 0.204 0.204 0.489 0.326 0.775 0.326h0.245c0.285 0 0.571-0.122 0.775-0.326 0.041-0.041 0.122-0.082 0.204-0.082h0.245c0.082 0 0.163 0.041 0.204 0.082 0.204 0.204 0.489 0.326 0.775 0.326h0.245c0.285 0 0.571-0.122 0.775-0.326 0.041-0.041 0.122-0.082 0.204-0.082h0.245c0.082 0 0.163 0.041 0.204 0.082 0.204 0.204 0.489 0.326 0.775 0.326h0.245c0.285 0 0.571-0.122 0.775-0.326 0.041-0.041 0.122-0.082 0.204-0.082h0.245c0.082 0 0.163 0.041 0.204 0.082l0.326 0.326h0.979c0.245 0 0.408 0.163 0.408 0.408s-0.163 0.408-0.408 0.408h-10.602c-0.245 0-0.408-0.163-0.408-0.408s0.163-0.408 0.408-0.408zM23.727 27.845h-3.221c-1.509 0-2.814-1.019-3.181-2.447h9.623c-0.408 1.427-1.713 2.447-3.221 2.447zM27.438 24.583h-10.602c-0.245 0-0.408-0.163-0.408-0.408s0.163-0.408 0.408-0.408h10.602c0.245 0 0.408 0.163 0.408 0.408s-0.204 0.408-0.408 0.408z"></path>
<path fill="#f4976e" d="M10.638 16.469c-0.163-0.489-0.612-0.856-1.183-0.856-0.326 0-0.612 0.122-0.816 0.326-0.204-0.204-0.489-0.326-0.816-0.326-0.571 0-1.019 0.367-1.182 0.856-1.917 0.367-3.303 2.080-3.303 4.037v3.221c0 1.957 1.427 3.67 3.303 4.037 0.163 0.489 0.612 0.856 1.182 0.856 0.326 0 0.612-0.122 0.816-0.326 0.204 0.204 0.489 0.326 0.816 0.326 0.571 0 1.019-0.367 1.183-0.856 1.916-0.367 3.303-2.080 3.303-4.037v-3.221c0.041-1.957-1.386-3.67-3.303-4.037zM4.195 23.727v-3.221c0-1.509 1.019-2.814 2.447-3.181v0.163l-0.082 0.082c-0.204 0.204-0.326 0.489-0.326 0.775v0.245c0 0.285 0.122 0.571 0.326 0.775 0.041 0.041 0.082 0.122 0.082 0.204v0.245c0 0.082-0.041 0.163-0.082 0.204-0.204 0.204-0.326 0.489-0.326 0.775v0.245c0 0.285 0.122 0.571 0.326 0.775 0.041 0.041 0.082 0.122 0.082 0.204v0.245c0 0.082-0.041 0.163-0.082 0.204-0.204 0.204-0.326 0.489-0.326 0.775v0.245c0 0.285 0.122 0.571 0.326 0.775 0.041 0.041 0.082 0.122 0.082 0.204v0.245c0 0.082-0.041 0.163-0.082 0.204-0.204 0.204-0.326 0.489-0.326 0.775v0.245c0 0.285 0.122 0.571 0.326 0.775l0.082 0.082v0.163c-1.427-0.408-2.447-1.713-2.447-3.221zM7.865 27.846c-0.245 0-0.408-0.163-0.408-0.408v-0.979l-0.326-0.326c-0.041-0.041-0.082-0.122-0.082-0.204v-0.245c0-0.082 0.041-0.163 0.082-0.204 0.204-0.204 0.326-0.489 0.326-0.775v-0.245c0-0.285-0.122-0.571-0.326-0.775-0.041-0.041-0.082-0.122-0.082-0.204v-0.245c0-0.082 0.041-0.163 0.082-0.204 0.204-0.204 0.326-0.489 0.326-0.775v-0.245c0-0.285-0.122-0.571-0.326-0.775-0.041-0.041-0.082-0.122-0.082-0.204v-0.245c0-0.082 0.041-0.163 0.082-0.204 0.204-0.204 0.326-0.489 0.326-0.775v-0.245c0-0.285-0.122-0.571-0.326-0.775-0.041-0.041-0.082-0.122-0.082-0.204v-0.245c0-0.082 0.041-0.163 0.082-0.204l0.326-0.326v-0.979c0-0.245 0.163-0.408 0.408-0.408s0.408 0.163 0.408 0.408v10.602c0 0.204-0.204 0.408-0.408 0.408zM9.904 27.438c0 0.245-0.163 0.408-0.408 0.408s-0.408-0.163-0.408-0.408v-10.602c0-0.245 0.163-0.408 0.408-0.408s0.408 0.163 0.408 0.408v10.602zM13.166 23.727c0 1.509-1.019 2.814-2.447 3.18v-9.582c1.427 0.367 2.447 1.672 2.447 3.181v3.221z"></path>
<path fill="#f4976e" d="M25.317 4.236c-0.163-0.489-0.612-0.856-1.183-0.856-0.326 0-0.612 0.122-0.815 0.326-0.204-0.204-0.489-0.326-0.816-0.326-0.571 0-1.019 0.367-1.183 0.856-1.916 0.367-3.303 2.080-3.303 4.037v3.221c0 1.957 1.427 3.67 3.303 4.037 0.163 0.489 0.612 0.856 1.183 0.856 0.326 0 0.612-0.122 0.816-0.326 0.204 0.204 0.489 0.326 0.815 0.326 0.571 0 1.019-0.367 1.183-0.856 1.916-0.367 3.303-2.080 3.303-4.037v-3.221c0.041-1.957-1.386-3.67-3.303-4.037zM18.875 11.494v-3.221c0-1.509 1.019-2.813 2.447-3.181v9.623c-1.427-0.408-2.447-1.713-2.447-3.221zM22.544 15.613c-0.245 0-0.408-0.163-0.408-0.408v-10.602c0-0.245 0.163-0.408 0.408-0.408s0.408 0.163 0.408 0.408v10.602c0 0.204-0.204 0.408-0.408 0.408zM24.583 14.226v0.979c0 0.245-0.163 0.408-0.408 0.408s-0.408-0.163-0.408-0.408v-10.602c0-0.245 0.163-0.408 0.408-0.408s0.408 0.163 0.408 0.408v0.979l0.326 0.326c0.041 0.041 0.082 0.122 0.082 0.204v0.245c0 0.082-0.041 0.163-0.082 0.204-0.204 0.204-0.326 0.489-0.326 0.775v0.245c0 0.285 0.122 0.571 0.326 0.775 0.041 0.041 0.082 0.122 0.082 0.204v0.245c0 0.082-0.041 0.163-0.082 0.204-0.204 0.204-0.326 0.489-0.326 0.775v0.245c0 0.285 0.122 0.571 0.326 0.775 0.041 0.041 0.082 0.122 0.082 0.204v0.245c0 0.082-0.041 0.163-0.082 0.204-0.204 0.204-0.326 0.489-0.326 0.775v0.245c0 0.285 0.122 0.571 0.326 0.775 0.041 0.041 0.082 0.122 0.082 0.204v0.245c0 0.082-0.041 0.163-0.082 0.204l-0.326 0.326zM27.845 11.494c0 1.509-1.019 2.814-2.447 3.181v-0.163l0.082-0.082c0.204-0.204 0.326-0.489 0.326-0.775v-0.245c0-0.285-0.122-0.571-0.326-0.775-0.041-0.041-0.082-0.122-0.082-0.204v-0.245c0-0.082 0.041-0.163 0.082-0.204 0.204-0.204 0.326-0.489 0.326-0.775v-0.245c0-0.285-0.122-0.571-0.326-0.775-0.041-0.041-0.082-0.122-0.082-0.204v-0.245c0-0.082 0.041-0.163 0.082-0.204 0.204-0.204 0.326-0.489 0.326-0.775v-0.245c0-0.285-0.122-0.571-0.326-0.775-0.041-0.041-0.082-0.122-0.082-0.204v-0.245c0-0.082 0.041-0.163 0.082-0.204 0.204-0.204 0.326-0.489 0.326-0.775v-0.245c0-0.285-0.122-0.571-0.326-0.775l-0.082-0.082v-0.163c1.427 0.367 2.447 1.672 2.447 3.181v3.262z"></path>
</svg>
