<!-- Generated by IcoMoon.io -->
<svg version="1.1" xmlns="http://www.w3.org/2000/svg" width="32" height="32" viewBox="0 0 32 32">
<title>vk</title>
<path d="M15.191 22.712h1.239c0 0 0.374-0.041 0.565-0.247 0.176-0.189 0.17-0.544 0.17-0.544s-0.024-1.663 0.747-1.907c0.761-0.241 1.738 1.607 2.773 2.318 0.783 0.538 1.378 0.42 1.378 0.42l2.768-0.039c0 0 1.448-0.089 0.761-1.228-0.056-0.093-0.4-0.842-2.058-2.382-1.736-1.611-1.503-1.351 0.588-4.138 1.273-1.697 1.783-2.734 1.624-3.177-0.152-0.423-1.088-0.311-1.088-0.311l-3.117 0.019c0 0-0.231-0.032-0.402 0.071-0.168 0.1-0.275 0.335-0.275 0.335s-0.493 1.313-1.151 2.43c-1.388 2.357-1.943 2.481-2.17 2.335-0.528-0.341-0.396-1.37-0.396-2.102 0-2.284 0.346-3.236-0.675-3.483-0.339-0.082-0.588-0.136-1.455-0.145-1.112-0.012-2.054 0.003-2.587 0.265-0.355 0.174-0.628 0.561-0.462 0.583 0.206 0.028 0.673 0.126 0.92 0.463 0.319 0.434 0.308 1.411 0.308 1.411s0.184 2.689-0.429 3.023c-0.42 0.229-0.997-0.239-2.234-2.377-0.634-1.095-1.113-2.306-1.113-2.306s-0.092-0.226-0.257-0.347c-0.2-0.147-0.479-0.193-0.479-0.193l-2.962 0.019c0 0-0.445 0.012-0.608 0.206-0.145 0.172-0.012 0.528-0.012 0.528s2.319 5.425 4.945 8.16c2.408 2.507 5.142 2.342 5.142 2.342z"></path>
</svg>
